<svg xmlns="http://www.w3.org/2000/svg" viewBox="0 0 800 400" width="100%" height="100%" style="background-color: #0f172a; font-family: system-ui, -apple-system, sans-serif;">
  <rect x="20" y="20" width="760" height="360" rx="12" fill="#1e293b" stroke="#334155" stroke-width="2"/>
  <text x="40" y="55" fill="#f8fafc" font-size="20" font-weight="bold">Targeted Child Continuation Tree vs. Full Rerun</text>

  <rect x="50" y="110" width="300" height="230" rx="8" fill="#0f172a" stroke="#3b82f6" stroke-width="2"/>
  <text x="70" y="140" fill="#60a5fa" font-size="16" font-weight="bold">Parent Run (run_parent_123)</text>
  <text x="70" y="165" fill="#94a3b8" font-size="13">Executed Turns 1..15 (44,080 tokens)</text>
  <rect x="70" y="185" width="260" height="40" rx="6" fill="#1e293b" stroke="#475569"/>
  <text x="85" y="210" fill="#e2e8f0" font-size="13">Turns 1-14: Code &amp; Search History</text>
  <rect x="70" y="240" width="260" height="45" rx="6" fill="#450a0a" stroke="#ef4444"/>
  <text x="85" y="267" fill="#fca5a5" font-size="13" font-weight="bold">Result: BLOCKED (Unverified Path)</text>

  <path d="M 350 225 L 450 225" stroke="#10b981" stroke-width="3" marker-end="url(#arrow)"/>
  <text x="365" y="210" fill="#34d399" font-size="12" font-weight="bold">orbit-harness run repair-grounding</text>

  <rect x="450" y="110" width="300" height="230" rx="8" fill="#0f172a" stroke="#10b981" stroke-width="2"/>
  <text x="470" y="140" fill="#34d399" font-size="16" font-weight="bold">Child Run (run_child_456)</text>
  <text x="470" y="165" fill="#94a3b8" font-size="13">Inherits Parent History (0 new tokens)</text>
  <rect x="470" y="185" width="260" height="40" rx="6" fill="#064e3b" stroke="#10b981"/>
  <text x="485" y="210" fill="#a7f3d0" font-size="13">Turn 15: Targeted Repair Injection</text>
  <rect x="470" y="240" width="260" height="45" rx="6" fill="#064e3b" stroke="#10b981"/>
  <text x="485" y="267" fill="#a7f3d0" font-size="13" font-weight="bold">Result: REPAIRED (2 turns, 4,200 tokens)</text>

  <defs>
    <marker id="arrow" viewBox="0 0 10 10" refX="5" refY="5" markerWidth="6" markerHeight="6" orient="auto-start-reverse">
      <path d="M 0 0 L 10 5 L 0 10 z" fill="#10b981"/>
    </marker>
  </defs>
</svg>
