<?xml version="1.0" encoding="utf-8" standalone="no"?>
<!DOCTYPE svg PUBLIC "-//W3C//DTD SVG 1.1//EN"
  "http://www.w3.org/Graphics/SVG/1.1/DTD/svg11.dtd">
<svg xmlns:xlink="http://www.w3.org/1999/xlink" width="531.410938pt" height="294.999375pt" viewBox="0 0 531.410938 294.999375" xmlns="http://www.w3.org/2000/svg" version="1.1">
 <metadata>
  <rdf:RDF xmlns:dc="http://purl.org/dc/elements/1.1/" xmlns:cc="http://creativecommons.org/ns#" xmlns:rdf="http://www.w3.org/1999/02/22-rdf-syntax-ns#">
   <cc:Work>
    <dc:type rdf:resource="http://purl.org/dc/dcmitype/StillImage"/>
    <dc:date>2026-07-17T16:22:45.531973</dc:date>
    <dc:format>image/svg+xml</dc:format>
    <dc:creator>
     <cc:Agent>
      <dc:title>Matplotlib v3.11.0, https://matplotlib.org/</dc:title>
     </cc:Agent>
    </dc:creator>
   </cc:Work>
  </rdf:RDF>
 </metadata>
 <defs>
  <style type="text/css">*{stroke-linejoin: round; stroke-linecap: butt}</style>
 </defs>
 <g id="figure_1">
  <g id="patch_1">
   <path d="M 0 294.999375 
L 531.410938 294.999375 
L 531.410938 0 
L 0 0 
z
" style="fill: #ffffff"/>
  </g>
  <g id="axes_1">
   <g id="patch_2">
    <path d="M 60.013281 256.798594 
L 524.210938 256.798594 
L 524.210938 22.318125 
L 60.013281 22.318125 
z
" style="fill: #ffffff"/>
   </g>
   <g id="matplotlib.axis_1">
    <g id="xtick_1">
     <g id="line2d_1">
      <path d="M 114.428796 256.798594 
L 114.428796 22.318125 
" clip-path="url(#p2405057ea3)" style="fill: none; stroke: #b0b0b0; stroke-opacity: 0.3; stroke-width: 0.8; stroke-linecap: square"/>
     </g>
     <g id="line2d_2">
      <defs>
       <path id="m43dfd52d79" d="M 0 0 
L 0 3.5 
" style="stroke: #000000; stroke-width: 0.8"/>
      </defs>
      <g>
       <use xlink:href="#m43dfd52d79" x="114.428796" y="256.798594" style="stroke: #000000; stroke-width: 0.8"/>
      </g>
     </g>
     <g id="text_1">
      <!-- 2.5 -->
      <g transform="translate(106.477233 271.39625) scale(0.1 -0.1)">
       <defs>
        <path id="DejaVuSans-15" d="M 1228 531 
L 3431 531 
L 3431 0 
L 469 0 
L 469 531 
Q 828 903 1448 1529 
Q 2069 2156 2228 2338 
Q 2531 2678 2651 2914 
Q 2772 3150 2772 3378 
Q 2772 3750 2511 3984 
Q 2250 4219 1831 4219 
Q 1534 4219 1204 4116 
Q 875 4013 500 3803 
L 500 4441 
Q 881 4594 1212 4672 
Q 1544 4750 1819 4750 
Q 2544 4750 2975 4387 
Q 3406 4025 3406 3419 
Q 3406 3131 3298 2873 
Q 3191 2616 2906 2266 
Q 2828 2175 2409 1742 
Q 1991 1309 1228 531 
z
" transform="scale(0.015625)"/>
        <path id="DejaVuSans-11" d="M 684 794 
L 1344 794 
L 1344 0 
L 684 0 
L 684 794 
z
" transform="scale(0.015625)"/>
        <path id="DejaVuSans-18" d="M 691 4666 
L 3169 4666 
L 3169 4134 
L 1269 4134 
L 1269 2991 
Q 1406 3038 1543 3061 
Q 1681 3084 1819 3084 
Q 2600 3084 3056 2656 
Q 3513 2228 3513 1497 
Q 3513 744 3044 326 
Q 2575 -91 1722 -91 
Q 1428 -91 1123 -41 
Q 819 9 494 109 
L 494 744 
Q 775 591 1075 516 
Q 1375 441 1709 441 
Q 2250 441 2565 725 
Q 2881 1009 2881 1497 
Q 2881 1984 2565 2268 
Q 2250 2553 1709 2553 
Q 1456 2553 1204 2497 
Q 953 2441 691 2322 
L 691 4666 
z
" transform="scale(0.015625)"/>
       </defs>
       <use xlink:href="#DejaVuSans-15"/>
       <use xlink:href="#DejaVuSans-11" transform="translate(63.625 0)"/>
       <use xlink:href="#DejaVuSans-18" transform="translate(95.40625 0)"/>
      </g>
     </g>
    </g>
    <g id="xtick_2">
     <g id="line2d_3">
      <path d="M 169.954831 256.798594 
L 169.954831 22.318125 
" clip-path="url(#p2405057ea3)" style="fill: none; stroke: #b0b0b0; stroke-opacity: 0.3; stroke-width: 0.8; stroke-linecap: square"/>
     </g>
     <g id="line2d_4">
      <g>
       <use xlink:href="#m43dfd52d79" x="169.954831" y="256.798594" style="stroke: #000000; stroke-width: 0.8"/>
      </g>
     </g>
     <g id="text_2">
      <!-- 5.0 -->
      <g transform="translate(162.003269 271.39625) scale(0.1 -0.1)">
       <defs>
        <path id="DejaVuSans-13" d="M 2034 4250 
Q 1547 4250 1301 3770 
Q 1056 3291 1056 2328 
Q 1056 1369 1301 889 
Q 1547 409 2034 409 
Q 2525 409 2770 889 
Q 3016 1369 3016 2328 
Q 3016 3291 2770 3770 
Q 2525 4250 2034 4250 
z
M 2034 4750 
Q 2819 4750 3233 4129 
Q 3647 3509 3647 2328 
Q 3647 1150 3233 529 
Q 2819 -91 2034 -91 
Q 1250 -91 836 529 
Q 422 1150 422 2328 
Q 422 3509 836 4129 
Q 1250 4750 2034 4750 
z
" transform="scale(0.015625)"/>
       </defs>
       <use xlink:href="#DejaVuSans-18"/>
       <use xlink:href="#DejaVuSans-11" transform="translate(63.625 0)"/>
       <use xlink:href="#DejaVuSans-13" transform="translate(95.40625 0)"/>
      </g>
     </g>
    </g>
    <g id="xtick_3">
     <g id="line2d_5">
      <path d="M 225.480867 256.798594 
L 225.480867 22.318125 
" clip-path="url(#p2405057ea3)" style="fill: none; stroke: #b0b0b0; stroke-opacity: 0.3; stroke-width: 0.8; stroke-linecap: square"/>
     </g>
     <g id="line2d_6">
      <g>
       <use xlink:href="#m43dfd52d79" x="225.480867" y="256.798594" style="stroke: #000000; stroke-width: 0.8"/>
      </g>
     </g>
     <g id="text_3">
      <!-- 7.5 -->
      <g transform="translate(217.529304 271.39625) scale(0.1 -0.1)">
       <defs>
        <path id="DejaVuSans-1a" d="M 525 4666 
L 3525 4666 
L 3525 4397 
L 1831 0 
L 1172 0 
L 2766 4134 
L 525 4134 
L 525 4666 
z
" transform="scale(0.015625)"/>
       </defs>
       <use xlink:href="#DejaVuSans-1a"/>
       <use xlink:href="#DejaVuSans-11" transform="translate(63.625 0)"/>
       <use xlink:href="#DejaVuSans-18" transform="translate(95.40625 0)"/>
      </g>
     </g>
    </g>
    <g id="xtick_4">
     <g id="line2d_7">
      <path d="M 281.006902 256.798594 
L 281.006902 22.318125 
" clip-path="url(#p2405057ea3)" style="fill: none; stroke: #b0b0b0; stroke-opacity: 0.3; stroke-width: 0.8; stroke-linecap: square"/>
     </g>
     <g id="line2d_8">
      <g>
       <use xlink:href="#m43dfd52d79" x="281.006902" y="256.798594" style="stroke: #000000; stroke-width: 0.8"/>
      </g>
     </g>
     <g id="text_4">
      <!-- 10.0 -->
      <g transform="translate(269.87409 271.39625) scale(0.1 -0.1)">
       <defs>
        <path id="DejaVuSans-14" d="M 794 531 
L 1825 531 
L 1825 4091 
L 703 3866 
L 703 4441 
L 1819 4666 
L 2450 4666 
L 2450 531 
L 3481 531 
L 3481 0 
L 794 0 
L 794 531 
z
" transform="scale(0.015625)"/>
       </defs>
       <use xlink:href="#DejaVuSans-14"/>
       <use xlink:href="#DejaVuSans-13" transform="translate(63.625 0)"/>
       <use xlink:href="#DejaVuSans-11" transform="translate(127.25 0)"/>
       <use xlink:href="#DejaVuSans-13" transform="translate(159.03125 0)"/>
      </g>
     </g>
    </g>
    <g id="xtick_5">
     <g id="line2d_9">
      <path d="M 336.532938 256.798594 
L 336.532938 22.318125 
" clip-path="url(#p2405057ea3)" style="fill: none; stroke: #b0b0b0; stroke-opacity: 0.3; stroke-width: 0.8; stroke-linecap: square"/>
     </g>
     <g id="line2d_10">
      <g>
       <use xlink:href="#m43dfd52d79" x="336.532938" y="256.798594" style="stroke: #000000; stroke-width: 0.8"/>
      </g>
     </g>
     <g id="text_5">
      <!-- 12.5 -->
      <g transform="translate(325.400125 271.39625) scale(0.1 -0.1)">
       <use xlink:href="#DejaVuSans-14"/>
       <use xlink:href="#DejaVuSans-15" transform="translate(63.625 0)"/>
       <use xlink:href="#DejaVuSans-11" transform="translate(127.25 0)"/>
       <use xlink:href="#DejaVuSans-18" transform="translate(159.03125 0)"/>
      </g>
     </g>
    </g>
    <g id="xtick_6">
     <g id="line2d_11">
      <path d="M 392.058973 256.798594 
L 392.058973 22.318125 
" clip-path="url(#p2405057ea3)" style="fill: none; stroke: #b0b0b0; stroke-opacity: 0.3; stroke-width: 0.8; stroke-linecap: square"/>
     </g>
     <g id="line2d_12">
      <g>
       <use xlink:href="#m43dfd52d79" x="392.058973" y="256.798594" style="stroke: #000000; stroke-width: 0.8"/>
      </g>
     </g>
     <g id="text_6">
      <!-- 15.0 -->
      <g transform="translate(380.926161 271.39625) scale(0.1 -0.1)">
       <use xlink:href="#DejaVuSans-14"/>
       <use xlink:href="#DejaVuSans-18" transform="translate(63.625 0)"/>
       <use xlink:href="#DejaVuSans-11" transform="translate(127.25 0)"/>
       <use xlink:href="#DejaVuSans-13" transform="translate(159.03125 0)"/>
      </g>
     </g>
    </g>
    <g id="xtick_7">
     <g id="line2d_13">
      <path d="M 447.585009 256.798594 
L 447.585009 22.318125 
" clip-path="url(#p2405057ea3)" style="fill: none; stroke: #b0b0b0; stroke-opacity: 0.3; stroke-width: 0.8; stroke-linecap: square"/>
     </g>
     <g id="line2d_14">
      <g>
       <use xlink:href="#m43dfd52d79" x="447.585009" y="256.798594" style="stroke: #000000; stroke-width: 0.8"/>
      </g>
     </g>
     <g id="text_7">
      <!-- 17.5 -->
      <g transform="translate(436.452196 271.39625) scale(0.1 -0.1)">
       <use xlink:href="#DejaVuSans-14"/>
       <use xlink:href="#DejaVuSans-1a" transform="translate(63.625 0)"/>
       <use xlink:href="#DejaVuSans-11" transform="translate(127.25 0)"/>
       <use xlink:href="#DejaVuSans-18" transform="translate(159.03125 0)"/>
      </g>
     </g>
    </g>
    <g id="xtick_8">
     <g id="line2d_15">
      <path d="M 503.111044 256.798594 
L 503.111044 22.318125 
" clip-path="url(#p2405057ea3)" style="fill: none; stroke: #b0b0b0; stroke-opacity: 0.3; stroke-width: 0.8; stroke-linecap: square"/>
     </g>
     <g id="line2d_16">
      <g>
       <use xlink:href="#m43dfd52d79" x="503.111044" y="256.798594" style="stroke: #000000; stroke-width: 0.8"/>
      </g>
     </g>
     <g id="text_8">
      <!-- 20.0 -->
      <g transform="translate(491.978232 271.39625) scale(0.1 -0.1)">
       <use xlink:href="#DejaVuSans-15"/>
       <use xlink:href="#DejaVuSans-13" transform="translate(63.625 0)"/>
       <use xlink:href="#DejaVuSans-11" transform="translate(127.25 0)"/>
       <use xlink:href="#DejaVuSans-13" transform="translate(159.03125 0)"/>
      </g>
     </g>
    </g>
    <g id="text_9">
     <!-- model call # -->
     <g transform="translate(260.583203 285.397031) scale(0.1 -0.1)">
      <defs>
       <path id="DejaVuSans-50" d="M 3328 2828 
Q 3544 3216 3844 3400 
Q 4144 3584 4550 3584 
Q 5097 3584 5394 3201 
Q 5691 2819 5691 2113 
L 5691 0 
L 5113 0 
L 5113 2094 
Q 5113 2597 4934 2840 
Q 4756 3084 4391 3084 
Q 3944 3084 3684 2787 
Q 3425 2491 3425 1978 
L 3425 0 
L 2847 0 
L 2847 2094 
Q 2847 2600 2669 2842 
Q 2491 3084 2119 3084 
Q 1678 3084 1418 2786 
Q 1159 2488 1159 1978 
L 1159 0 
L 581 0 
L 581 3500 
L 1159 3500 
L 1159 2956 
Q 1356 3278 1631 3431 
Q 1906 3584 2284 3584 
Q 2666 3584 2933 3390 
Q 3200 3197 3328 2828 
z
" transform="scale(0.015625)"/>
       <path id="DejaVuSans-52" d="M 1959 3097 
Q 1497 3097 1228 2736 
Q 959 2375 959 1747 
Q 959 1119 1226 758 
Q 1494 397 1959 397 
Q 2419 397 2687 759 
Q 2956 1122 2956 1747 
Q 2956 2369 2687 2733 
Q 2419 3097 1959 3097 
z
M 1959 3584 
Q 2709 3584 3137 3096 
Q 3566 2609 3566 1747 
Q 3566 888 3137 398 
Q 2709 -91 1959 -91 
Q 1206 -91 779 398 
Q 353 888 353 1747 
Q 353 2609 779 3096 
Q 1206 3584 1959 3584 
z
" transform="scale(0.015625)"/>
       <path id="DejaVuSans-47" d="M 2906 2969 
L 2906 4863 
L 3481 4863 
L 3481 0 
L 2906 0 
L 2906 525 
Q 2725 213 2448 61 
Q 2172 -91 1784 -91 
Q 1150 -91 751 415 
Q 353 922 353 1747 
Q 353 2572 751 3078 
Q 1150 3584 1784 3584 
Q 2172 3584 2448 3432 
Q 2725 3281 2906 2969 
z
M 947 1747 
Q 947 1113 1208 752 
Q 1469 391 1925 391 
Q 2381 391 2643 752 
Q 2906 1113 2906 1747 
Q 2906 2381 2643 2742 
Q 2381 3103 1925 3103 
Q 1469 3103 1208 2742 
Q 947 2381 947 1747 
z
" transform="scale(0.015625)"/>
       <path id="DejaVuSans-48" d="M 3597 1894 
L 3597 1613 
L 953 1613 
Q 991 1019 1311 708 
Q 1631 397 2203 397 
Q 2534 397 2845 478 
Q 3156 559 3463 722 
L 3463 178 
Q 3153 47 2828 -22 
Q 2503 -91 2169 -91 
Q 1331 -91 842 396 
Q 353 884 353 1716 
Q 353 2575 817 3079 
Q 1281 3584 2069 3584 
Q 2775 3584 3186 3129 
Q 3597 2675 3597 1894 
z
M 3022 2063 
Q 3016 2534 2758 2815 
Q 2500 3097 2075 3097 
Q 1594 3097 1305 2825 
Q 1016 2553 972 2059 
L 3022 2063 
z
" transform="scale(0.015625)"/>
       <path id="DejaVuSans-4f" d="M 603 4863 
L 1178 4863 
L 1178 0 
L 603 0 
L 603 4863 
z
" transform="scale(0.015625)"/>
       <path id="DejaVuSans-3" transform="scale(0.015625)"/>
       <path id="DejaVuSans-46" d="M 3122 3366 
L 3122 2828 
Q 2878 2963 2633 3030 
Q 2388 3097 2138 3097 
Q 1578 3097 1268 2742 
Q 959 2388 959 1747 
Q 959 1106 1268 751 
Q 1578 397 2138 397 
Q 2388 397 2633 464 
Q 2878 531 3122 666 
L 3122 134 
Q 2881 22 2623 -34 
Q 2366 -91 2075 -91 
Q 1284 -91 818 406 
Q 353 903 353 1747 
Q 353 2603 823 3093 
Q 1294 3584 2113 3584 
Q 2378 3584 2631 3529 
Q 2884 3475 3122 3366 
z
" transform="scale(0.015625)"/>
       <path id="DejaVuSans-44" d="M 2194 1759 
Q 1497 1759 1228 1600 
Q 959 1441 959 1056 
Q 959 750 1161 570 
Q 1363 391 1709 391 
Q 2188 391 2477 730 
Q 2766 1069 2766 1631 
L 2766 1759 
L 2194 1759 
z
M 3341 1997 
L 3341 0 
L 2766 0 
L 2766 531 
Q 2569 213 2275 61 
Q 1981 -91 1556 -91 
Q 1019 -91 701 211 
Q 384 513 384 1019 
Q 384 1609 779 1909 
Q 1175 2209 1959 2209 
L 2766 2209 
L 2766 2266 
Q 2766 2663 2505 2880 
Q 2244 3097 1772 3097 
Q 1472 3097 1187 3025 
Q 903 2953 641 2809 
L 641 3341 
Q 956 3463 1253 3523 
Q 1550 3584 1831 3584 
Q 2591 3584 2966 3190 
Q 3341 2797 3341 1997 
z
" transform="scale(0.015625)"/>
       <path id="DejaVuSans-6" d="M 3272 2816 
L 2363 2816 
L 2100 1772 
L 3016 1772 
L 3272 2816 
z
M 2803 4594 
L 2478 3297 
L 3391 3297 
L 3719 4594 
L 4219 4594 
L 3897 3297 
L 4872 3297 
L 4872 2816 
L 3775 2816 
L 3519 1772 
L 4513 1772 
L 4513 1294 
L 3397 1294 
L 3072 0 
L 2572 0 
L 2894 1294 
L 1978 1294 
L 1656 0 
L 1153 0 
L 1478 1294 
L 494 1294 
L 494 1772 
L 1594 1772 
L 1856 2816 
L 850 2816 
L 850 3297 
L 1978 3297 
L 2297 4594 
L 2803 4594 
z
" transform="scale(0.015625)"/>
      </defs>
      <use xlink:href="#DejaVuSans-50"/>
      <use xlink:href="#DejaVuSans-52" transform="translate(97.40625 0)"/>
      <use xlink:href="#DejaVuSans-47" transform="translate(158.59375 0)"/>
      <use xlink:href="#DejaVuSans-48" transform="translate(222.078125 0)"/>
      <use xlink:href="#DejaVuSans-4f" transform="translate(283.609375 0)"/>
      <use xlink:href="#DejaVuSans-3" transform="translate(311.390625 0)"/>
      <use xlink:href="#DejaVuSans-46" transform="translate(343.171875 0)"/>
      <use xlink:href="#DejaVuSans-44" transform="translate(398.15625 0)"/>
      <use xlink:href="#DejaVuSans-4f" transform="translate(459.4375 0)"/>
      <use xlink:href="#DejaVuSans-4f" transform="translate(487.21875 0)"/>
      <use xlink:href="#DejaVuSans-3" transform="translate(515 0)"/>
      <use xlink:href="#DejaVuSans-6" transform="translate(546.78125 0)"/>
     </g>
    </g>
   </g>
   <g id="matplotlib.axis_2">
    <g id="ytick_1">
     <g id="line2d_17">
      <path d="M 60.013281 255.784319 
L 524.210938 255.784319 
" clip-path="url(#p2405057ea3)" style="fill: none; stroke: #b0b0b0; stroke-opacity: 0.3; stroke-width: 0.8; stroke-linecap: square"/>
     </g>
     <g id="line2d_18">
      <defs>
       <path id="md1ac9e19d5" d="M 0 0 
L -3.5 0 
" style="stroke: #000000; stroke-width: 0.8"/>
      </defs>
      <g>
       <use xlink:href="#md1ac9e19d5" x="60.013281" y="255.784319" style="stroke: #000000; stroke-width: 0.8"/>
      </g>
     </g>
     <g id="text_10">
      <!-- 0 -->
      <g transform="translate(46.650781 259.583147) scale(0.1 -0.1)">
       <use xlink:href="#DejaVuSans-13"/>
      </g>
     </g>
    </g>
    <g id="ytick_2">
     <g id="line2d_19">
      <path d="M 60.013281 222.529395 
L 524.210938 222.529395 
" clip-path="url(#p2405057ea3)" style="fill: none; stroke: #b0b0b0; stroke-opacity: 0.3; stroke-width: 0.8; stroke-linecap: square"/>
     </g>
     <g id="line2d_20">
      <g>
       <use xlink:href="#md1ac9e19d5" x="60.013281" y="222.529395" style="stroke: #000000; stroke-width: 0.8"/>
      </g>
     </g>
     <g id="text_11">
      <!-- 10000 -->
      <g transform="translate(21.200781 226.328223) scale(0.1 -0.1)">
       <use xlink:href="#DejaVuSans-14"/>
       <use xlink:href="#DejaVuSans-13" transform="translate(63.625 0)"/>
       <use xlink:href="#DejaVuSans-13" transform="translate(127.25 0)"/>
       <use xlink:href="#DejaVuSans-13" transform="translate(190.875 0)"/>
       <use xlink:href="#DejaVuSans-13" transform="translate(254.5 0)"/>
      </g>
     </g>
    </g>
    <g id="ytick_3">
     <g id="line2d_21">
      <path d="M 60.013281 189.274471 
L 524.210938 189.274471 
" clip-path="url(#p2405057ea3)" style="fill: none; stroke: #b0b0b0; stroke-opacity: 0.3; stroke-width: 0.8; stroke-linecap: square"/>
     </g>
     <g id="line2d_22">
      <g>
       <use xlink:href="#md1ac9e19d5" x="60.013281" y="189.274471" style="stroke: #000000; stroke-width: 0.8"/>
      </g>
     </g>
     <g id="text_12">
      <!-- 20000 -->
      <g transform="translate(21.200781 193.073299) scale(0.1 -0.1)">
       <use xlink:href="#DejaVuSans-15"/>
       <use xlink:href="#DejaVuSans-13" transform="translate(63.625 0)"/>
       <use xlink:href="#DejaVuSans-13" transform="translate(127.25 0)"/>
       <use xlink:href="#DejaVuSans-13" transform="translate(190.875 0)"/>
       <use xlink:href="#DejaVuSans-13" transform="translate(254.5 0)"/>
      </g>
     </g>
    </g>
    <g id="ytick_4">
     <g id="line2d_23">
      <path d="M 60.013281 156.019547 
L 524.210938 156.019547 
" clip-path="url(#p2405057ea3)" style="fill: none; stroke: #b0b0b0; stroke-opacity: 0.3; stroke-width: 0.8; stroke-linecap: square"/>
     </g>
     <g id="line2d_24">
      <g>
       <use xlink:href="#md1ac9e19d5" x="60.013281" y="156.019547" style="stroke: #000000; stroke-width: 0.8"/>
      </g>
     </g>
     <g id="text_13">
      <!-- 30000 -->
      <g transform="translate(21.200781 159.818375) scale(0.1 -0.1)">
       <defs>
        <path id="DejaVuSans-16" d="M 2597 2516 
Q 3050 2419 3304 2112 
Q 3559 1806 3559 1356 
Q 3559 666 3084 287 
Q 2609 -91 1734 -91 
Q 1441 -91 1130 -33 
Q 819 25 488 141 
L 488 750 
Q 750 597 1062 519 
Q 1375 441 1716 441 
Q 2309 441 2620 675 
Q 2931 909 2931 1356 
Q 2931 1769 2642 2001 
Q 2353 2234 1838 2234 
L 1294 2234 
L 1294 2753 
L 1863 2753 
Q 2328 2753 2575 2939 
Q 2822 3125 2822 3475 
Q 2822 3834 2567 4026 
Q 2313 4219 1838 4219 
Q 1578 4219 1281 4162 
Q 984 4106 628 3988 
L 628 4550 
Q 988 4650 1302 4700 
Q 1616 4750 1894 4750 
Q 2613 4750 3031 4423 
Q 3450 4097 3450 3541 
Q 3450 3153 3228 2886 
Q 3006 2619 2597 2516 
z
" transform="scale(0.015625)"/>
       </defs>
       <use xlink:href="#DejaVuSans-16"/>
       <use xlink:href="#DejaVuSans-13" transform="translate(63.625 0)"/>
       <use xlink:href="#DejaVuSans-13" transform="translate(127.25 0)"/>
       <use xlink:href="#DejaVuSans-13" transform="translate(190.875 0)"/>
       <use xlink:href="#DejaVuSans-13" transform="translate(254.5 0)"/>
      </g>
     </g>
    </g>
    <g id="ytick_5">
     <g id="line2d_25">
      <path d="M 60.013281 122.764623 
L 524.210938 122.764623 
" clip-path="url(#p2405057ea3)" style="fill: none; stroke: #b0b0b0; stroke-opacity: 0.3; stroke-width: 0.8; stroke-linecap: square"/>
     </g>
     <g id="line2d_26">
      <g>
       <use xlink:href="#md1ac9e19d5" x="60.013281" y="122.764623" style="stroke: #000000; stroke-width: 0.8"/>
      </g>
     </g>
     <g id="text_14">
      <!-- 40000 -->
      <g transform="translate(21.200781 126.563451) scale(0.1 -0.1)">
       <defs>
        <path id="DejaVuSans-17" d="M 2419 4116 
L 825 1625 
L 2419 1625 
L 2419 4116 
z
M 2253 4666 
L 3047 4666 
L 3047 1625 
L 3713 1625 
L 3713 1100 
L 3047 1100 
L 3047 0 
L 2419 0 
L 2419 1100 
L 313 1100 
L 313 1709 
L 2253 4666 
z
" transform="scale(0.015625)"/>
       </defs>
       <use xlink:href="#DejaVuSans-17"/>
       <use xlink:href="#DejaVuSans-13" transform="translate(63.625 0)"/>
       <use xlink:href="#DejaVuSans-13" transform="translate(127.25 0)"/>
       <use xlink:href="#DejaVuSans-13" transform="translate(190.875 0)"/>
       <use xlink:href="#DejaVuSans-13" transform="translate(254.5 0)"/>
      </g>
     </g>
    </g>
    <g id="ytick_6">
     <g id="line2d_27">
      <path d="M 60.013281 89.509699 
L 524.210938 89.509699 
" clip-path="url(#p2405057ea3)" style="fill: none; stroke: #b0b0b0; stroke-opacity: 0.3; stroke-width: 0.8; stroke-linecap: square"/>
     </g>
     <g id="line2d_28">
      <g>
       <use xlink:href="#md1ac9e19d5" x="60.013281" y="89.509699" style="stroke: #000000; stroke-width: 0.8"/>
      </g>
     </g>
     <g id="text_15">
      <!-- 50000 -->
      <g transform="translate(21.200781 93.308527) scale(0.1 -0.1)">
       <use xlink:href="#DejaVuSans-18"/>
       <use xlink:href="#DejaVuSans-13" transform="translate(63.625 0)"/>
       <use xlink:href="#DejaVuSans-13" transform="translate(127.25 0)"/>
       <use xlink:href="#DejaVuSans-13" transform="translate(190.875 0)"/>
       <use xlink:href="#DejaVuSans-13" transform="translate(254.5 0)"/>
      </g>
     </g>
    </g>
    <g id="ytick_7">
     <g id="line2d_29">
      <path d="M 60.013281 56.254775 
L 524.210938 56.254775 
" clip-path="url(#p2405057ea3)" style="fill: none; stroke: #b0b0b0; stroke-opacity: 0.3; stroke-width: 0.8; stroke-linecap: square"/>
     </g>
     <g id="line2d_30">
      <g>
       <use xlink:href="#md1ac9e19d5" x="60.013281" y="56.254775" style="stroke: #000000; stroke-width: 0.8"/>
      </g>
     </g>
     <g id="text_16">
      <!-- 60000 -->
      <g transform="translate(21.200781 60.053603) scale(0.1 -0.1)">
       <defs>
        <path id="DejaVuSans-19" d="M 2113 2584 
Q 1688 2584 1439 2293 
Q 1191 2003 1191 1497 
Q 1191 994 1439 701 
Q 1688 409 2113 409 
Q 2538 409 2786 701 
Q 3034 994 3034 1497 
Q 3034 2003 2786 2293 
Q 2538 2584 2113 2584 
z
M 3366 4563 
L 3366 3988 
Q 3128 4100 2886 4159 
Q 2644 4219 2406 4219 
Q 1781 4219 1451 3797 
Q 1122 3375 1075 2522 
Q 1259 2794 1537 2939 
Q 1816 3084 2150 3084 
Q 2853 3084 3261 2657 
Q 3669 2231 3669 1497 
Q 3669 778 3244 343 
Q 2819 -91 2113 -91 
Q 1303 -91 875 529 
Q 447 1150 447 2328 
Q 447 3434 972 4092 
Q 1497 4750 2381 4750 
Q 2619 4750 2861 4703 
Q 3103 4656 3366 4563 
z
" transform="scale(0.015625)"/>
       </defs>
       <use xlink:href="#DejaVuSans-19"/>
       <use xlink:href="#DejaVuSans-13" transform="translate(63.625 0)"/>
       <use xlink:href="#DejaVuSans-13" transform="translate(127.25 0)"/>
       <use xlink:href="#DejaVuSans-13" transform="translate(190.875 0)"/>
       <use xlink:href="#DejaVuSans-13" transform="translate(254.5 0)"/>
      </g>
     </g>
    </g>
    <g id="ytick_8">
     <g id="line2d_31">
      <path d="M 60.013281 22.999851 
L 524.210938 22.999851 
" clip-path="url(#p2405057ea3)" style="fill: none; stroke: #b0b0b0; stroke-opacity: 0.3; stroke-width: 0.8; stroke-linecap: square"/>
     </g>
     <g id="line2d_32">
      <g>
       <use xlink:href="#md1ac9e19d5" x="60.013281" y="22.999851" style="stroke: #000000; stroke-width: 0.8"/>
      </g>
     </g>
     <g id="text_17">
      <!-- 70000 -->
      <g transform="translate(21.200781 26.798679) scale(0.1 -0.1)">
       <use xlink:href="#DejaVuSans-1a"/>
       <use xlink:href="#DejaVuSans-13" transform="translate(63.625 0)"/>
       <use xlink:href="#DejaVuSans-13" transform="translate(127.25 0)"/>
       <use xlink:href="#DejaVuSans-13" transform="translate(190.875 0)"/>
       <use xlink:href="#DejaVuSans-13" transform="translate(254.5 0)"/>
      </g>
     </g>
    </g>
    <g id="text_18">
     <!-- input tokens (approx) -->
     <g transform="translate(14.798438 193.308359) rotate(-90) scale(0.1 -0.1)">
      <defs>
       <path id="DejaVuSans-4c" d="M 603 3500 
L 1178 3500 
L 1178 0 
L 603 0 
L 603 3500 
z
M 603 4863 
L 1178 4863 
L 1178 4134 
L 603 4134 
L 603 4863 
z
" transform="scale(0.015625)"/>
       <path id="DejaVuSans-51" d="M 3513 2113 
L 3513 0 
L 2938 0 
L 2938 2094 
Q 2938 2591 2744 2837 
Q 2550 3084 2163 3084 
Q 1697 3084 1428 2787 
Q 1159 2491 1159 1978 
L 1159 0 
L 581 0 
L 581 3500 
L 1159 3500 
L 1159 2956 
Q 1366 3272 1645 3428 
Q 1925 3584 2291 3584 
Q 2894 3584 3203 3211 
Q 3513 2838 3513 2113 
z
" transform="scale(0.015625)"/>
       <path id="DejaVuSans-53" d="M 1159 525 
L 1159 -1331 
L 581 -1331 
L 581 3500 
L 1159 3500 
L 1159 2969 
Q 1341 3281 1617 3432 
Q 1894 3584 2278 3584 
Q 2916 3584 3314 3078 
Q 3713 2572 3713 1747 
Q 3713 922 3314 415 
Q 2916 -91 2278 -91 
Q 1894 -91 1617 61 
Q 1341 213 1159 525 
z
M 3116 1747 
Q 3116 2381 2855 2742 
Q 2594 3103 2138 3103 
Q 1681 3103 1420 2742 
Q 1159 2381 1159 1747 
Q 1159 1113 1420 752 
Q 1681 391 2138 391 
Q 2594 391 2855 752 
Q 3116 1113 3116 1747 
z
" transform="scale(0.015625)"/>
       <path id="DejaVuSans-58" d="M 544 1381 
L 544 3500 
L 1119 3500 
L 1119 1403 
Q 1119 906 1312 657 
Q 1506 409 1894 409 
Q 2359 409 2629 706 
Q 2900 1003 2900 1516 
L 2900 3500 
L 3475 3500 
L 3475 0 
L 2900 0 
L 2900 538 
Q 2691 219 2414 64 
Q 2138 -91 1772 -91 
Q 1169 -91 856 284 
Q 544 659 544 1381 
z
M 1991 3584 
L 1991 3584 
z
" transform="scale(0.015625)"/>
       <path id="DejaVuSans-57" d="M 1172 4494 
L 1172 3500 
L 2356 3500 
L 2356 3053 
L 1172 3053 
L 1172 1153 
Q 1172 725 1289 603 
Q 1406 481 1766 481 
L 2356 481 
L 2356 0 
L 1766 0 
Q 1100 0 847 248 
Q 594 497 594 1153 
L 594 3053 
L 172 3053 
L 172 3500 
L 594 3500 
L 594 4494 
L 1172 4494 
z
" transform="scale(0.015625)"/>
       <path id="DejaVuSans-4e" d="M 581 4863 
L 1159 4863 
L 1159 1991 
L 2875 3500 
L 3609 3500 
L 1753 1863 
L 3688 0 
L 2938 0 
L 1159 1709 
L 1159 0 
L 581 0 
L 581 4863 
z
" transform="scale(0.015625)"/>
       <path id="DejaVuSans-56" d="M 2834 3397 
L 2834 2853 
Q 2591 2978 2328 3040 
Q 2066 3103 1784 3103 
Q 1356 3103 1142 2972 
Q 928 2841 928 2578 
Q 928 2378 1081 2264 
Q 1234 2150 1697 2047 
L 1894 2003 
Q 2506 1872 2764 1633 
Q 3022 1394 3022 966 
Q 3022 478 2636 193 
Q 2250 -91 1575 -91 
Q 1294 -91 989 -36 
Q 684 19 347 128 
L 347 722 
Q 666 556 975 473 
Q 1284 391 1588 391 
Q 1994 391 2212 530 
Q 2431 669 2431 922 
Q 2431 1156 2273 1281 
Q 2116 1406 1581 1522 
L 1381 1569 
Q 847 1681 609 1914 
Q 372 2147 372 2553 
Q 372 3047 722 3315 
Q 1072 3584 1716 3584 
Q 2034 3584 2315 3537 
Q 2597 3491 2834 3397 
z
" transform="scale(0.015625)"/>
       <path id="DejaVuSans-b" d="M 1984 4856 
Q 1566 4138 1362 3434 
Q 1159 2731 1159 2009 
Q 1159 1288 1364 580 
Q 1569 -128 1984 -844 
L 1484 -844 
Q 1016 -109 783 600 
Q 550 1309 550 2009 
Q 550 2706 781 3412 
Q 1013 4119 1484 4856 
L 1984 4856 
z
" transform="scale(0.015625)"/>
       <path id="DejaVuSans-55" d="M 2631 2963 
Q 2534 3019 2420 3045 
Q 2306 3072 2169 3072 
Q 1681 3072 1420 2755 
Q 1159 2438 1159 1844 
L 1159 0 
L 581 0 
L 581 3500 
L 1159 3500 
L 1159 2956 
Q 1341 3275 1631 3429 
Q 1922 3584 2338 3584 
Q 2397 3584 2469 3576 
Q 2541 3569 2628 3553 
L 2631 2963 
z
" transform="scale(0.015625)"/>
       <path id="DejaVuSans-5b" d="M 3513 3500 
L 2247 1797 
L 3578 0 
L 2900 0 
L 1881 1375 
L 863 0 
L 184 0 
L 1544 1831 
L 300 3500 
L 978 3500 
L 1906 2253 
L 2834 3500 
L 3513 3500 
z
" transform="scale(0.015625)"/>
       <path id="DejaVuSans-c" d="M 513 4856 
L 1013 4856 
Q 1481 4119 1714 3412 
Q 1947 2706 1947 2009 
Q 1947 1309 1714 600 
Q 1481 -109 1013 -844 
L 513 -844 
Q 928 -128 1133 580 
Q 1338 1288 1338 2009 
Q 1338 2731 1133 3434 
Q 928 4138 513 4856 
z
" transform="scale(0.015625)"/>
      </defs>
      <use xlink:href="#DejaVuSans-4c"/>
      <use xlink:href="#DejaVuSans-51" transform="translate(27.78125 0)"/>
      <use xlink:href="#DejaVuSans-53" transform="translate(91.15625 0)"/>
      <use xlink:href="#DejaVuSans-58" transform="translate(154.640625 0)"/>
      <use xlink:href="#DejaVuSans-57" transform="translate(218.015625 0)"/>
      <use xlink:href="#DejaVuSans-3" transform="translate(257.21875 0)"/>
      <use xlink:href="#DejaVuSans-57" transform="translate(289 0)"/>
      <use xlink:href="#DejaVuSans-52" transform="translate(328.203125 0)"/>
      <use xlink:href="#DejaVuSans-4e" transform="translate(389.390625 0)"/>
      <use xlink:href="#DejaVuSans-48" transform="translate(443.734375 0)"/>
      <use xlink:href="#DejaVuSans-51" transform="translate(505.265625 0)"/>
      <use xlink:href="#DejaVuSans-56" transform="translate(568.640625 0)"/>
      <use xlink:href="#DejaVuSans-3" transform="translate(620.734375 0)"/>
      <use xlink:href="#DejaVuSans-b" transform="translate(652.515625 0)"/>
      <use xlink:href="#DejaVuSans-44" transform="translate(691.53125 0)"/>
      <use xlink:href="#DejaVuSans-53" transform="translate(752.8125 0)"/>
      <use xlink:href="#DejaVuSans-53" transform="translate(816.296875 0)"/>
      <use xlink:href="#DejaVuSans-55" transform="translate(879.78125 0)"/>
      <use xlink:href="#DejaVuSans-52" transform="translate(918.6875 0)"/>
      <use xlink:href="#DejaVuSans-5b" transform="translate(976.796875 0)"/>
      <use xlink:href="#DejaVuSans-c" transform="translate(1035.984375 0)"/>
     </g>
    </g>
   </g>
   <g id="line2d_33">
    <path d="M 81.113175 245.807841 
L 103.323589 229.180379 
L 125.534003 205.901933 
L 147.744417 182.623486 
L 169.954831 156.019547 
L 192.165246 129.415608 
L 214.37566 106.137161 
L 236.586074 82.858714 
L 258.796488 62.90576 
L 281.006902 49.60379 
L 303.217316 39.627313 
L 325.427731 32.976328 
" clip-path="url(#p2405057ea3)" style="fill: none; stroke: #1f77b4; stroke-width: 2; stroke-linecap: square"/>
    <defs>
     <path id="mab3ef30c78" d="M 0 3 
C 0.795609 3 1.55874 2.683901 2.12132 2.12132 
C 2.683901 1.55874 3 0.795609 3 0 
C 3 -0.795609 2.683901 -1.55874 2.12132 -2.12132 
C 1.55874 -2.683901 0.795609 -3 0 -3 
C -0.795609 -3 -1.55874 -2.683901 -2.12132 -2.12132 
C -2.683901 -1.55874 -3 -0.795609 -3 0 
C -3 0.795609 -2.683901 1.55874 -2.12132 2.12132 
C -1.55874 2.683901 -0.795609 3 0 3 
z
" style="stroke: #1f77b4"/>
    </defs>
    <g clip-path="url(#p2405057ea3)">
     <use xlink:href="#mab3ef30c78" x="81.113175" y="245.807841" style="fill: #1f77b4; stroke: #1f77b4"/>
     <use xlink:href="#mab3ef30c78" x="103.323589" y="229.180379" style="fill: #1f77b4; stroke: #1f77b4"/>
     <use xlink:href="#mab3ef30c78" x="125.534003" y="205.901933" style="fill: #1f77b4; stroke: #1f77b4"/>
     <use xlink:href="#mab3ef30c78" x="147.744417" y="182.623486" style="fill: #1f77b4; stroke: #1f77b4"/>
     <use xlink:href="#mab3ef30c78" x="169.954831" y="156.019547" style="fill: #1f77b4; stroke: #1f77b4"/>
     <use xlink:href="#mab3ef30c78" x="192.165246" y="129.415608" style="fill: #1f77b4; stroke: #1f77b4"/>
     <use xlink:href="#mab3ef30c78" x="214.37566" y="106.137161" style="fill: #1f77b4; stroke: #1f77b4"/>
     <use xlink:href="#mab3ef30c78" x="236.586074" y="82.858714" style="fill: #1f77b4; stroke: #1f77b4"/>
     <use xlink:href="#mab3ef30c78" x="258.796488" y="62.90576" style="fill: #1f77b4; stroke: #1f77b4"/>
     <use xlink:href="#mab3ef30c78" x="281.006902" y="49.60379" style="fill: #1f77b4; stroke: #1f77b4"/>
     <use xlink:href="#mab3ef30c78" x="303.217316" y="39.627313" style="fill: #1f77b4; stroke: #1f77b4"/>
     <use xlink:href="#mab3ef30c78" x="325.427731" y="32.976328" style="fill: #1f77b4; stroke: #1f77b4"/>
    </g>
   </g>
   <g id="line2d_34">
    <path d="M 81.113175 246.140391 
L 103.323589 238.159209 
L 125.534003 236.496463 
L 147.744417 219.203902 
L 169.954831 202.57644 
L 192.165246 207.564679 
L 214.37566 207.897228 
L 236.586074 207.23213 
L 258.796488 207.564679 
L 281.006902 205.569383 
L 303.217316 203.906637 
L 325.427731 207.897228 
L 347.638145 208.562327 
L 369.848559 201.578793 
L 392.058973 200.581145 
L 414.269387 200.581145 
L 436.479802 202.57644 
L 458.690216 204.239186 
L 480.90063 209.227425 
L 503.111044 209.559974 
" clip-path="url(#p2405057ea3)" style="fill: none; stroke: #ff7f0e; stroke-width: 2; stroke-linecap: square"/>
    <defs>
     <path id="me6dd255b10" d="M 0 3 
C 0.795609 3 1.55874 2.683901 2.12132 2.12132 
C 2.683901 1.55874 3 0.795609 3 0 
C 3 -0.795609 2.683901 -1.55874 2.12132 -2.12132 
C 1.55874 -2.683901 0.795609 -3 0 -3 
C -0.795609 -3 -1.55874 -2.683901 -2.12132 -2.12132 
C -2.683901 -1.55874 -3 -0.795609 -3 0 
C -3 0.795609 -2.683901 1.55874 -2.12132 2.12132 
C -1.55874 2.683901 -0.795609 3 0 3 
z
" style="stroke: #ff7f0e"/>
    </defs>
    <g clip-path="url(#p2405057ea3)">
     <use xlink:href="#me6dd255b10" x="81.113175" y="246.140391" style="fill: #ff7f0e; stroke: #ff7f0e"/>
     <use xlink:href="#me6dd255b10" x="103.323589" y="238.159209" style="fill: #ff7f0e; stroke: #ff7f0e"/>
     <use xlink:href="#me6dd255b10" x="125.534003" y="236.496463" style="fill: #ff7f0e; stroke: #ff7f0e"/>
     <use xlink:href="#me6dd255b10" x="147.744417" y="219.203902" style="fill: #ff7f0e; stroke: #ff7f0e"/>
     <use xlink:href="#me6dd255b10" x="169.954831" y="202.57644" style="fill: #ff7f0e; stroke: #ff7f0e"/>
     <use xlink:href="#me6dd255b10" x="192.165246" y="207.564679" style="fill: #ff7f0e; stroke: #ff7f0e"/>
     <use xlink:href="#me6dd255b10" x="214.37566" y="207.897228" style="fill: #ff7f0e; stroke: #ff7f0e"/>
     <use xlink:href="#me6dd255b10" x="236.586074" y="207.23213" style="fill: #ff7f0e; stroke: #ff7f0e"/>
     <use xlink:href="#me6dd255b10" x="258.796488" y="207.564679" style="fill: #ff7f0e; stroke: #ff7f0e"/>
     <use xlink:href="#me6dd255b10" x="281.006902" y="205.569383" style="fill: #ff7f0e; stroke: #ff7f0e"/>
     <use xlink:href="#me6dd255b10" x="303.217316" y="203.906637" style="fill: #ff7f0e; stroke: #ff7f0e"/>
     <use xlink:href="#me6dd255b10" x="325.427731" y="207.897228" style="fill: #ff7f0e; stroke: #ff7f0e"/>
     <use xlink:href="#me6dd255b10" x="347.638145" y="208.562327" style="fill: #ff7f0e; stroke: #ff7f0e"/>
     <use xlink:href="#me6dd255b10" x="369.848559" y="201.578793" style="fill: #ff7f0e; stroke: #ff7f0e"/>
     <use xlink:href="#me6dd255b10" x="392.058973" y="200.581145" style="fill: #ff7f0e; stroke: #ff7f0e"/>
     <use xlink:href="#me6dd255b10" x="414.269387" y="200.581145" style="fill: #ff7f0e; stroke: #ff7f0e"/>
     <use xlink:href="#me6dd255b10" x="436.479802" y="202.57644" style="fill: #ff7f0e; stroke: #ff7f0e"/>
     <use xlink:href="#me6dd255b10" x="458.690216" y="204.239186" style="fill: #ff7f0e; stroke: #ff7f0e"/>
     <use xlink:href="#me6dd255b10" x="480.90063" y="209.227425" style="fill: #ff7f0e; stroke: #ff7f0e"/>
     <use xlink:href="#me6dd255b10" x="503.111044" y="209.559974" style="fill: #ff7f0e; stroke: #ff7f0e"/>
    </g>
   </g>
   <g id="patch_3">
    <path d="M 60.013281 256.798594 
L 60.013281 22.318125 
" style="fill: none; stroke: #000000; stroke-width: 0.8; stroke-linejoin: miter; stroke-linecap: square"/>
   </g>
   <g id="patch_4">
    <path d="M 524.210938 256.798594 
L 524.210938 22.318125 
" style="fill: none; stroke: #000000; stroke-width: 0.8; stroke-linejoin: miter; stroke-linecap: square"/>
   </g>
   <g id="patch_5">
    <path d="M 60.013281 256.798594 
L 524.210938 256.798594 
" style="fill: none; stroke: #000000; stroke-width: 0.8; stroke-linejoin: miter; stroke-linecap: square"/>
   </g>
   <g id="patch_6">
    <path d="M 60.013281 22.318125 
L 524.210938 22.318125 
" style="fill: none; stroke: #000000; stroke-width: 0.8; stroke-linejoin: miter; stroke-linecap: square"/>
   </g>
   <g id="text_19">
    <!-- Per-call input tokens (monitor series; thrash late points schematic) -->
    <g transform="translate(92.119922 16.318125) scale(0.12 -0.12)">
     <defs>
      <path id="DejaVuSans-33" d="M 1259 4147 
L 1259 2394 
L 2053 2394 
Q 2494 2394 2734 2622 
Q 2975 2850 2975 3272 
Q 2975 3691 2734 3919 
Q 2494 4147 2053 4147 
L 1259 4147 
z
M 628 4666 
L 2053 4666 
Q 2838 4666 3239 4311 
Q 3641 3956 3641 3272 
Q 3641 2581 3239 2228 
Q 2838 1875 2053 1875 
L 1259 1875 
L 1259 0 
L 628 0 
L 628 4666 
z
" transform="scale(0.015625)"/>
      <path id="DejaVuSans-10" d="M 313 2009 
L 1997 2009 
L 1997 1497 
L 313 1497 
L 313 2009 
z
" transform="scale(0.015625)"/>
      <path id="DejaVuSans-1e" d="M 750 3309 
L 1409 3309 
L 1409 2516 
L 750 2516 
L 750 3309 
z
M 750 794 
L 1409 794 
L 1409 256 
L 897 -744 
L 494 -744 
L 750 256 
L 750 794 
z
" transform="scale(0.015625)"/>
      <path id="DejaVuSans-4b" d="M 3513 2113 
L 3513 0 
L 2938 0 
L 2938 2094 
Q 2938 2591 2744 2837 
Q 2550 3084 2163 3084 
Q 1697 3084 1428 2787 
Q 1159 2491 1159 1978 
L 1159 0 
L 581 0 
L 581 4863 
L 1159 4863 
L 1159 2956 
Q 1366 3272 1645 3428 
Q 1925 3584 2291 3584 
Q 2894 3584 3203 3211 
Q 3513 2838 3513 2113 
z
" transform="scale(0.015625)"/>
     </defs>
     <use xlink:href="#DejaVuSans-33"/>
     <use xlink:href="#DejaVuSans-48" transform="translate(56.734375 0)"/>
     <use xlink:href="#DejaVuSans-55" transform="translate(118.265625 0)"/>
     <use xlink:href="#DejaVuSans-10" transform="translate(152.984375 0)"/>
     <use xlink:href="#DejaVuSans-46" transform="translate(189.0625 0)"/>
     <use xlink:href="#DejaVuSans-44" transform="translate(244.046875 0)"/>
     <use xlink:href="#DejaVuSans-4f" transform="translate(305.328125 0)"/>
     <use xlink:href="#DejaVuSans-4f" transform="translate(333.109375 0)"/>
     <use xlink:href="#DejaVuSans-3" transform="translate(360.890625 0)"/>
     <use xlink:href="#DejaVuSans-4c" transform="translate(392.671875 0)"/>
     <use xlink:href="#DejaVuSans-51" transform="translate(420.453125 0)"/>
     <use xlink:href="#DejaVuSans-53" transform="translate(483.828125 0)"/>
     <use xlink:href="#DejaVuSans-58" transform="translate(547.3125 0)"/>
     <use xlink:href="#DejaVuSans-57" transform="translate(610.6875 0)"/>
     <use xlink:href="#DejaVuSans-3" transform="translate(649.890625 0)"/>
     <use xlink:href="#DejaVuSans-57" transform="translate(681.671875 0)"/>
     <use xlink:href="#DejaVuSans-52" transform="translate(720.875 0)"/>
     <use xlink:href="#DejaVuSans-4e" transform="translate(782.0625 0)"/>
     <use xlink:href="#DejaVuSans-48" transform="translate(836.40625 0)"/>
     <use xlink:href="#DejaVuSans-51" transform="translate(897.9375 0)"/>
     <use xlink:href="#DejaVuSans-56" transform="translate(961.3125 0)"/>
     <use xlink:href="#DejaVuSans-3" transform="translate(1013.40625 0)"/>
     <use xlink:href="#DejaVuSans-b" transform="translate(1045.1875 0)"/>
     <use xlink:href="#DejaVuSans-50" transform="translate(1084.203125 0)"/>
     <use xlink:href="#DejaVuSans-52" transform="translate(1181.609375 0)"/>
     <use xlink:href="#DejaVuSans-51" transform="translate(1242.796875 0)"/>
     <use xlink:href="#DejaVuSans-4c" transform="translate(1306.171875 0)"/>
     <use xlink:href="#DejaVuSans-57" transform="translate(1333.953125 0)"/>
     <use xlink:href="#DejaVuSans-52" transform="translate(1373.15625 0)"/>
     <use xlink:href="#DejaVuSans-55" transform="translate(1434.34375 0)"/>
     <use xlink:href="#DejaVuSans-3" transform="translate(1475.453125 0)"/>
     <use xlink:href="#DejaVuSans-56" transform="translate(1507.234375 0)"/>
     <use xlink:href="#DejaVuSans-48" transform="translate(1559.328125 0)"/>
     <use xlink:href="#DejaVuSans-55" transform="translate(1620.859375 0)"/>
     <use xlink:href="#DejaVuSans-4c" transform="translate(1661.96875 0)"/>
     <use xlink:href="#DejaVuSans-48" transform="translate(1689.75 0)"/>
     <use xlink:href="#DejaVuSans-56" transform="translate(1751.28125 0)"/>
     <use xlink:href="#DejaVuSans-1e" transform="translate(1803.375 0)"/>
     <use xlink:href="#DejaVuSans-3" transform="translate(1837.0625 0)"/>
     <use xlink:href="#DejaVuSans-57" transform="translate(1868.84375 0)"/>
     <use xlink:href="#DejaVuSans-4b" transform="translate(1908.046875 0)"/>
     <use xlink:href="#DejaVuSans-55" transform="translate(1971.421875 0)"/>
     <use xlink:href="#DejaVuSans-44" transform="translate(2012.53125 0)"/>
     <use xlink:href="#DejaVuSans-56" transform="translate(2073.8125 0)"/>
     <use xlink:href="#DejaVuSans-4b" transform="translate(2125.90625 0)"/>
     <use xlink:href="#DejaVuSans-3" transform="translate(2189.28125 0)"/>
     <use xlink:href="#DejaVuSans-4f" transform="translate(2221.0625 0)"/>
     <use xlink:href="#DejaVuSans-44" transform="translate(2248.84375 0)"/>
     <use xlink:href="#DejaVuSans-57" transform="translate(2310.125 0)"/>
     <use xlink:href="#DejaVuSans-48" transform="translate(2349.328125 0)"/>
     <use xlink:href="#DejaVuSans-3" transform="translate(2410.859375 0)"/>
     <use xlink:href="#DejaVuSans-53" transform="translate(2442.640625 0)"/>
     <use xlink:href="#DejaVuSans-52" transform="translate(2506.125 0)"/>
     <use xlink:href="#DejaVuSans-4c" transform="translate(2567.3125 0)"/>
     <use xlink:href="#DejaVuSans-51" transform="translate(2595.09375 0)"/>
     <use xlink:href="#DejaVuSans-57" transform="translate(2658.46875 0)"/>
     <use xlink:href="#DejaVuSans-56" transform="translate(2697.671875 0)"/>
     <use xlink:href="#DejaVuSans-3" transform="translate(2749.765625 0)"/>
     <use xlink:href="#DejaVuSans-56" transform="translate(2781.546875 0)"/>
     <use xlink:href="#DejaVuSans-46" transform="translate(2833.640625 0)"/>
     <use xlink:href="#DejaVuSans-4b" transform="translate(2888.625 0)"/>
     <use xlink:href="#DejaVuSans-48" transform="translate(2952 0)"/>
     <use xlink:href="#DejaVuSans-50" transform="translate(3013.53125 0)"/>
     <use xlink:href="#DejaVuSans-44" transform="translate(3110.9375 0)"/>
     <use xlink:href="#DejaVuSans-57" transform="translate(3172.21875 0)"/>
     <use xlink:href="#DejaVuSans-4c" transform="translate(3211.421875 0)"/>
     <use xlink:href="#DejaVuSans-46" transform="translate(3239.203125 0)"/>
     <use xlink:href="#DejaVuSans-c" transform="translate(3294.1875 0)"/>
    </g>
   </g>
   <g id="legend_1">
    <g id="patch_7">
     <path d="M 292.578125 251.798594 
L 517.210938 251.798594 
Q 519.210938 251.798594 519.210938 249.798594 
L 519.210938 220.797031 
Q 519.210938 218.797031 517.210938 218.797031 
L 292.578125 218.797031 
Q 290.578125 218.797031 290.578125 220.797031 
L 290.578125 249.798594 
Q 290.578125 251.798594 292.578125 251.798594 
z
" style="fill: #ffffff; opacity: 0.8; stroke: #cccccc; stroke-linejoin: miter"/>
    </g>
    <g id="line2d_35">
     <path d="M 294.578125 226.895469 
L 304.578125 226.895469 
L 314.578125 226.895469 
" style="fill: none; stroke: #1f77b4; stroke-width: 2; stroke-linecap: square"/>
     <g>
      <use xlink:href="#mab3ef30c78" x="304.578125" y="226.895469" style="fill: #1f77b4; stroke: #1f77b4"/>
     </g>
    </g>
    <g id="text_20">
     <!-- thrash (no effective compaction) -->
     <g transform="translate(322.578125 230.395469) scale(0.1 -0.1)">
      <defs>
       <path id="DejaVuSans-13ae" d="M 4531 4863 
L 4531 4384 
L 3981 4384 
Q 3672 4384 3551 4259 
Q 3431 4134 3431 3809 
L 3431 3500 
L 4378 3500 
L 4378 3053 
L 3431 3053 
L 3431 0 
L 2853 0 
L 2853 3053 
L 1275 3053 
L 1275 0 
L 697 0 
L 697 3053 
L 147 3053 
L 147 3500 
L 697 3500 
L 697 3744 
Q 697 4328 969 4595 
Q 1241 4863 1831 4863 
L 2375 4863 
L 2375 4384 
L 1825 4384 
Q 1516 4384 1394 4259 
Q 1275 4134 1275 3809 
L 1275 3500 
L 2853 3500 
L 2853 3744 
Q 2853 4328 3125 4595 
Q 3397 4863 3988 4863 
L 4531 4863 
z
" transform="scale(0.015625)"/>
       <path id="DejaVuSans-59" d="M 191 3500 
L 800 3500 
L 1894 563 
L 2988 3500 
L 3597 3500 
L 2284 0 
L 1503 0 
L 191 3500 
z
" transform="scale(0.015625)"/>
      </defs>
      <use xlink:href="#DejaVuSans-57"/>
      <use xlink:href="#DejaVuSans-4b" transform="translate(39.203125 0)"/>
      <use xlink:href="#DejaVuSans-55" transform="translate(102.578125 0)"/>
      <use xlink:href="#DejaVuSans-44" transform="translate(143.6875 0)"/>
      <use xlink:href="#DejaVuSans-56" transform="translate(204.96875 0)"/>
      <use xlink:href="#DejaVuSans-4b" transform="translate(257.0625 0)"/>
      <use xlink:href="#DejaVuSans-3" transform="translate(320.4375 0)"/>
      <use xlink:href="#DejaVuSans-b" transform="translate(352.21875 0)"/>
      <use xlink:href="#DejaVuSans-51" transform="translate(391.234375 0)"/>
      <use xlink:href="#DejaVuSans-52" transform="translate(454.609375 0)"/>
      <use xlink:href="#DejaVuSans-3" transform="translate(515.796875 0)"/>
      <use xlink:href="#DejaVuSans-48" transform="translate(547.578125 0)"/>
      <use xlink:href="#DejaVuSans-13ae" transform="translate(609.109375 0)"/>
      <use xlink:href="#DejaVuSans-48" transform="translate(678 0)"/>
      <use xlink:href="#DejaVuSans-46" transform="translate(739.53125 0)"/>
      <use xlink:href="#DejaVuSans-57" transform="translate(794.515625 0)"/>
      <use xlink:href="#DejaVuSans-4c" transform="translate(833.71875 0)"/>
      <use xlink:href="#DejaVuSans-59" transform="translate(861.5 0)"/>
      <use xlink:href="#DejaVuSans-48" transform="translate(920.6875 0)"/>
      <use xlink:href="#DejaVuSans-3" transform="translate(982.21875 0)"/>
      <use xlink:href="#DejaVuSans-46" transform="translate(1014 0)"/>
      <use xlink:href="#DejaVuSans-52" transform="translate(1068.984375 0)"/>
      <use xlink:href="#DejaVuSans-50" transform="translate(1130.171875 0)"/>
      <use xlink:href="#DejaVuSans-53" transform="translate(1227.578125 0)"/>
      <use xlink:href="#DejaVuSans-44" transform="translate(1291.0625 0)"/>
      <use xlink:href="#DejaVuSans-46" transform="translate(1352.34375 0)"/>
      <use xlink:href="#DejaVuSans-57" transform="translate(1407.328125 0)"/>
      <use xlink:href="#DejaVuSans-4c" transform="translate(1446.53125 0)"/>
      <use xlink:href="#DejaVuSans-52" transform="translate(1474.3125 0)"/>
      <use xlink:href="#DejaVuSans-51" transform="translate(1535.5 0)"/>
      <use xlink:href="#DejaVuSans-c" transform="translate(1598.875 0)"/>
     </g>
    </g>
    <g id="line2d_36">
     <path d="M 294.578125 241.89625 
L 304.578125 241.89625 
L 314.578125 241.89625 
" style="fill: none; stroke: #ff7f0e; stroke-width: 2; stroke-linecap: square"/>
     <g>
      <use xlink:href="#me6dd255b10" x="304.578125" y="241.89625" style="fill: #ff7f0e; stroke: #ff7f0e"/>
     </g>
    </g>
    <g id="text_21">
     <!-- history compaction (~14–16k plateau) -->
     <g transform="translate(322.578125 245.39625) scale(0.1 -0.1)">
      <defs>
       <path id="DejaVuSans-5c" d="M 2059 -325 
Q 1816 -950 1584 -1140 
Q 1353 -1331 966 -1331 
L 506 -1331 
L 506 -850 
L 844 -850 
Q 1081 -850 1212 -737 
Q 1344 -625 1503 -206 
L 1606 56 
L 191 3500 
L 800 3500 
L 1894 763 
L 2988 3500 
L 3597 3500 
L 2059 -325 
z
" transform="scale(0.015625)"/>
       <path id="DejaVuSans-61" d="M 4684 2553 
L 4684 1997 
Q 4356 1750 4076 1644 
Q 3797 1538 3494 1538 
Q 3150 1538 2694 1722 
Q 2659 1734 2644 1741 
Q 2622 1750 2575 1766 
Q 2091 1959 1797 1959 
Q 1522 1959 1253 1839 
Q 984 1719 678 1459 
L 678 2016 
Q 1006 2263 1286 2370 
Q 1566 2478 1869 2478 
Q 2213 2478 2672 2291 
Q 2703 2278 2719 2272 
Q 2744 2263 2788 2247 
Q 3272 2053 3566 2053 
Q 3834 2053 4098 2172 
Q 4363 2291 4684 2553 
z
" transform="scale(0.015625)"/>
       <path id="DejaVuSans-af5" d="M 313 1978 
L 2888 1978 
L 2888 1528 
L 313 1528 
L 313 1978 
z
" transform="scale(0.015625)"/>
      </defs>
      <use xlink:href="#DejaVuSans-4b"/>
      <use xlink:href="#DejaVuSans-4c" transform="translate(63.375 0)"/>
      <use xlink:href="#DejaVuSans-56" transform="translate(91.15625 0)"/>
      <use xlink:href="#DejaVuSans-57" transform="translate(143.25 0)"/>
      <use xlink:href="#DejaVuSans-52" transform="translate(182.453125 0)"/>
      <use xlink:href="#DejaVuSans-55" transform="translate(243.640625 0)"/>
      <use xlink:href="#DejaVuSans-5c" transform="translate(284.75 0)"/>
      <use xlink:href="#DejaVuSans-3" transform="translate(343.9375 0)"/>
      <use xlink:href="#DejaVuSans-46" transform="translate(375.71875 0)"/>
      <use xlink:href="#DejaVuSans-52" transform="translate(430.703125 0)"/>
      <use xlink:href="#DejaVuSans-50" transform="translate(491.890625 0)"/>
      <use xlink:href="#DejaVuSans-53" transform="translate(589.296875 0)"/>
      <use xlink:href="#DejaVuSans-44" transform="translate(652.78125 0)"/>
      <use xlink:href="#DejaVuSans-46" transform="translate(714.0625 0)"/>
      <use xlink:href="#DejaVuSans-57" transform="translate(769.046875 0)"/>
      <use xlink:href="#DejaVuSans-4c" transform="translate(808.25 0)"/>
      <use xlink:href="#DejaVuSans-52" transform="translate(836.03125 0)"/>
      <use xlink:href="#DejaVuSans-51" transform="translate(897.21875 0)"/>
      <use xlink:href="#DejaVuSans-3" transform="translate(960.59375 0)"/>
      <use xlink:href="#DejaVuSans-b" transform="translate(992.375 0)"/>
      <use xlink:href="#DejaVuSans-61" transform="translate(1031.390625 0)"/>
      <use xlink:href="#DejaVuSans-14" transform="translate(1115.1875 0)"/>
      <use xlink:href="#DejaVuSans-17" transform="translate(1178.8125 0)"/>
      <use xlink:href="#DejaVuSans-af5" transform="translate(1242.4375 0)"/>
      <use xlink:href="#DejaVuSans-14" transform="translate(1292.4375 0)"/>
      <use xlink:href="#DejaVuSans-19" transform="translate(1356.0625 0)"/>
      <use xlink:href="#DejaVuSans-4e" transform="translate(1419.6875 0)"/>
      <use xlink:href="#DejaVuSans-3" transform="translate(1477.59375 0)"/>
      <use xlink:href="#DejaVuSans-53" transform="translate(1509.375 0)"/>
      <use xlink:href="#DejaVuSans-4f" transform="translate(1572.859375 0)"/>
      <use xlink:href="#DejaVuSans-44" transform="translate(1600.640625 0)"/>
      <use xlink:href="#DejaVuSans-57" transform="translate(1661.921875 0)"/>
      <use xlink:href="#DejaVuSans-48" transform="translate(1701.125 0)"/>
      <use xlink:href="#DejaVuSans-44" transform="translate(1762.65625 0)"/>
      <use xlink:href="#DejaVuSans-58" transform="translate(1823.9375 0)"/>
      <use xlink:href="#DejaVuSans-c" transform="translate(1887.3125 0)"/>
     </g>
    </g>
   </g>
  </g>
 </g>
 <defs>
  <clipPath id="p2405057ea3">
   <rect x="60.013281" y="22.318125" width="464.197656" height="234.480469"/>
  </clipPath>
 </defs>
</svg>
