<?xml version="1.0" encoding="utf-8" standalone="no"?>
<!DOCTYPE svg PUBLIC "-//W3C//DTD SVG 1.1//EN"
  "http://www.w3.org/Graphics/SVG/1.1/DTD/svg11.dtd">
<svg xmlns:xlink="http://www.w3.org/1999/xlink" width="567.885937pt" height="294.999375pt" viewBox="0 0 567.885937 294.999375" xmlns="http://www.w3.org/2000/svg" version="1.1">
 <metadata>
  <rdf:RDF xmlns:dc="http://purl.org/dc/elements/1.1/" xmlns:cc="http://creativecommons.org/ns#" xmlns:rdf="http://www.w3.org/1999/02/22-rdf-syntax-ns#">
   <cc:Work>
    <dc:type rdf:resource="http://purl.org/dc/dcmitype/StillImage"/>
    <dc:date>2026-07-17T16:22:45.429429</dc:date>
    <dc:format>image/svg+xml</dc:format>
    <dc:creator>
     <cc:Agent>
      <dc:title>Matplotlib v3.11.0, https://matplotlib.org/</dc:title>
     </cc:Agent>
    </dc:creator>
   </cc:Work>
  </rdf:RDF>
 </metadata>
 <defs>
  <style type="text/css">*{stroke-linejoin: round; stroke-linecap: butt}</style>
 </defs>
 <g id="figure_1">
  <g id="patch_1">
   <path d="M 0 294.999375 
L 567.885937 294.999375 
L 567.885937 0 
L 0 0 
z
" style="fill: #ffffff"/>
  </g>
  <g id="axes_1">
   <g id="patch_2">
    <path d="M 47.288281 270.798594 
L 560.685937 270.798594 
L 560.685937 22.318125 
L 47.288281 22.318125 
z
" style="fill: #ffffff"/>
   </g>
   <g id="patch_3">
    <path d="M 70.624538 270.798594 
L 131.125946 270.798594 
L 131.125946 266.841268 
L 70.624538 266.841268 
z
" clip-path="url(#p5e257d919c)" style="fill: #1f77b4"/>
   </g>
   <g id="patch_4">
    <path d="M 243.485702 270.798594 
L 303.987109 270.798594 
L 303.987109 34.150528 
L 243.485702 34.150528 
z
" clip-path="url(#p5e257d919c)" style="fill: #1f77b4"/>
   </g>
   <g id="patch_5">
    <path d="M 416.346866 270.798594 
L 476.848273 270.798594 
L 476.848273 270.007129 
L 416.346866 270.007129 
z
" clip-path="url(#p5e257d919c)" style="fill: #1f77b4"/>
   </g>
   <g id="patch_6">
    <path d="M 131.125946 270.798594 
L 191.627353 270.798594 
L 191.627353 269.611396 
L 131.125946 269.611396 
z
" clip-path="url(#p5e257d919c)" style="fill: #ff7f0e"/>
   </g>
   <g id="patch_7">
    <path d="M 303.987109 270.798594 
L 364.488517 270.798594 
L 364.488517 197.983804 
L 303.987109 197.983804 
z
" clip-path="url(#p5e257d919c)" style="fill: #ff7f0e"/>
   </g>
   <g id="patch_8">
    <path d="M 476.848273 270.798594 
L 537.34968 270.798594 
L 537.34968 262.883943 
L 476.848273 262.883943 
z
" clip-path="url(#p5e257d919c)" style="fill: #ff7f0e"/>
   </g>
   <g id="matplotlib.axis_1">
    <g id="xtick_1">
     <g id="line2d_1">
      <defs>
       <path id="m5d28226b8b" d="M 0 0 
L 0 3.5 
" style="stroke: #000000; stroke-width: 0.8"/>
      </defs>
      <g>
       <use xlink:href="#m5d28226b8b" x="131.125946" y="270.798594" style="stroke: #000000; stroke-width: 0.8"/>
      </g>
     </g>
     <g id="text_1">
      <!-- cells/turn mean -->
      <g transform="translate(92.198602 285.397031) scale(0.1 -0.1)">
       <defs>
        <path id="DejaVuSans-46" d="M 3122 3366 
L 3122 2828 
Q 2878 2963 2633 3030 
Q 2388 3097 2138 3097 
Q 1578 3097 1268 2742 
Q 959 2388 959 1747 
Q 959 1106 1268 751 
Q 1578 397 2138 397 
Q 2388 397 2633 464 
Q 2878 531 3122 666 
L 3122 134 
Q 2881 22 2623 -34 
Q 2366 -91 2075 -91 
Q 1284 -91 818 406 
Q 353 903 353 1747 
Q 353 2603 823 3093 
Q 1294 3584 2113 3584 
Q 2378 3584 2631 3529 
Q 2884 3475 3122 3366 
z
" transform="scale(0.015625)"/>
        <path id="DejaVuSans-48" d="M 3597 1894 
L 3597 1613 
L 953 1613 
Q 991 1019 1311 708 
Q 1631 397 2203 397 
Q 2534 397 2845 478 
Q 3156 559 3463 722 
L 3463 178 
Q 3153 47 2828 -22 
Q 2503 -91 2169 -91 
Q 1331 -91 842 396 
Q 353 884 353 1716 
Q 353 2575 817 3079 
Q 1281 3584 2069 3584 
Q 2775 3584 3186 3129 
Q 3597 2675 3597 1894 
z
M 3022 2063 
Q 3016 2534 2758 2815 
Q 2500 3097 2075 3097 
Q 1594 3097 1305 2825 
Q 1016 2553 972 2059 
L 3022 2063 
z
" transform="scale(0.015625)"/>
        <path id="DejaVuSans-4f" d="M 603 4863 
L 1178 4863 
L 1178 0 
L 603 0 
L 603 4863 
z
" transform="scale(0.015625)"/>
        <path id="DejaVuSans-56" d="M 2834 3397 
L 2834 2853 
Q 2591 2978 2328 3040 
Q 2066 3103 1784 3103 
Q 1356 3103 1142 2972 
Q 928 2841 928 2578 
Q 928 2378 1081 2264 
Q 1234 2150 1697 2047 
L 1894 2003 
Q 2506 1872 2764 1633 
Q 3022 1394 3022 966 
Q 3022 478 2636 193 
Q 2250 -91 1575 -91 
Q 1294 -91 989 -36 
Q 684 19 347 128 
L 347 722 
Q 666 556 975 473 
Q 1284 391 1588 391 
Q 1994 391 2212 530 
Q 2431 669 2431 922 
Q 2431 1156 2273 1281 
Q 2116 1406 1581 1522 
L 1381 1569 
Q 847 1681 609 1914 
Q 372 2147 372 2553 
Q 372 3047 722 3315 
Q 1072 3584 1716 3584 
Q 2034 3584 2315 3537 
Q 2597 3491 2834 3397 
z
" transform="scale(0.015625)"/>
        <path id="DejaVuSans-12" d="M 1625 4666 
L 2156 4666 
L 531 -594 
L 0 -594 
L 1625 4666 
z
" transform="scale(0.015625)"/>
        <path id="DejaVuSans-57" d="M 1172 4494 
L 1172 3500 
L 2356 3500 
L 2356 3053 
L 1172 3053 
L 1172 1153 
Q 1172 725 1289 603 
Q 1406 481 1766 481 
L 2356 481 
L 2356 0 
L 1766 0 
Q 1100 0 847 248 
Q 594 497 594 1153 
L 594 3053 
L 172 3053 
L 172 3500 
L 594 3500 
L 594 4494 
L 1172 4494 
z
" transform="scale(0.015625)"/>
        <path id="DejaVuSans-58" d="M 544 1381 
L 544 3500 
L 1119 3500 
L 1119 1403 
Q 1119 906 1312 657 
Q 1506 409 1894 409 
Q 2359 409 2629 706 
Q 2900 1003 2900 1516 
L 2900 3500 
L 3475 3500 
L 3475 0 
L 2900 0 
L 2900 538 
Q 2691 219 2414 64 
Q 2138 -91 1772 -91 
Q 1169 -91 856 284 
Q 544 659 544 1381 
z
M 1991 3584 
L 1991 3584 
z
" transform="scale(0.015625)"/>
        <path id="DejaVuSans-55" d="M 2631 2963 
Q 2534 3019 2420 3045 
Q 2306 3072 2169 3072 
Q 1681 3072 1420 2755 
Q 1159 2438 1159 1844 
L 1159 0 
L 581 0 
L 581 3500 
L 1159 3500 
L 1159 2956 
Q 1341 3275 1631 3429 
Q 1922 3584 2338 3584 
Q 2397 3584 2469 3576 
Q 2541 3569 2628 3553 
L 2631 2963 
z
" transform="scale(0.015625)"/>
        <path id="DejaVuSans-51" d="M 3513 2113 
L 3513 0 
L 2938 0 
L 2938 2094 
Q 2938 2591 2744 2837 
Q 2550 3084 2163 3084 
Q 1697 3084 1428 2787 
Q 1159 2491 1159 1978 
L 1159 0 
L 581 0 
L 581 3500 
L 1159 3500 
L 1159 2956 
Q 1366 3272 1645 3428 
Q 1925 3584 2291 3584 
Q 2894 3584 3203 3211 
Q 3513 2838 3513 2113 
z
" transform="scale(0.015625)"/>
        <path id="DejaVuSans-3" transform="scale(0.015625)"/>
        <path id="DejaVuSans-50" d="M 3328 2828 
Q 3544 3216 3844 3400 
Q 4144 3584 4550 3584 
Q 5097 3584 5394 3201 
Q 5691 2819 5691 2113 
L 5691 0 
L 5113 0 
L 5113 2094 
Q 5113 2597 4934 2840 
Q 4756 3084 4391 3084 
Q 3944 3084 3684 2787 
Q 3425 2491 3425 1978 
L 3425 0 
L 2847 0 
L 2847 2094 
Q 2847 2600 2669 2842 
Q 2491 3084 2119 3084 
Q 1678 3084 1418 2786 
Q 1159 2488 1159 1978 
L 1159 0 
L 581 0 
L 581 3500 
L 1159 3500 
L 1159 2956 
Q 1356 3278 1631 3431 
Q 1906 3584 2284 3584 
Q 2666 3584 2933 3390 
Q 3200 3197 3328 2828 
z
" transform="scale(0.015625)"/>
        <path id="DejaVuSans-44" d="M 2194 1759 
Q 1497 1759 1228 1600 
Q 959 1441 959 1056 
Q 959 750 1161 570 
Q 1363 391 1709 391 
Q 2188 391 2477 730 
Q 2766 1069 2766 1631 
L 2766 1759 
L 2194 1759 
z
M 3341 1997 
L 3341 0 
L 2766 0 
L 2766 531 
Q 2569 213 2275 61 
Q 1981 -91 1556 -91 
Q 1019 -91 701 211 
Q 384 513 384 1019 
Q 384 1609 779 1909 
Q 1175 2209 1959 2209 
L 2766 2209 
L 2766 2266 
Q 2766 2663 2505 2880 
Q 2244 3097 1772 3097 
Q 1472 3097 1187 3025 
Q 903 2953 641 2809 
L 641 3341 
Q 956 3463 1253 3523 
Q 1550 3584 1831 3584 
Q 2591 3584 2966 3190 
Q 3341 2797 3341 1997 
z
" transform="scale(0.015625)"/>
       </defs>
       <use xlink:href="#DejaVuSans-46"/>
       <use xlink:href="#DejaVuSans-48" transform="translate(54.984375 0)"/>
       <use xlink:href="#DejaVuSans-4f" transform="translate(116.515625 0)"/>
       <use xlink:href="#DejaVuSans-4f" transform="translate(144.296875 0)"/>
       <use xlink:href="#DejaVuSans-56" transform="translate(172.078125 0)"/>
       <use xlink:href="#DejaVuSans-12" transform="translate(224.171875 0)"/>
       <use xlink:href="#DejaVuSans-57" transform="translate(257.859375 0)"/>
       <use xlink:href="#DejaVuSans-58" transform="translate(297.0625 0)"/>
       <use xlink:href="#DejaVuSans-55" transform="translate(360.4375 0)"/>
       <use xlink:href="#DejaVuSans-51" transform="translate(399.796875 0)"/>
       <use xlink:href="#DejaVuSans-3" transform="translate(463.171875 0)"/>
       <use xlink:href="#DejaVuSans-50" transform="translate(494.953125 0)"/>
       <use xlink:href="#DejaVuSans-48" transform="translate(592.359375 0)"/>
       <use xlink:href="#DejaVuSans-44" transform="translate(653.890625 0)"/>
       <use xlink:href="#DejaVuSans-51" transform="translate(715.171875 0)"/>
      </g>
     </g>
    </g>
    <g id="xtick_2">
     <g id="line2d_2">
      <g>
       <use xlink:href="#m5d28226b8b" x="303.987109" y="270.798594" style="stroke: #000000; stroke-width: 0.8"/>
      </g>
     </g>
     <g id="text_2">
      <!-- code chars mean -->
      <g transform="translate(260.927734 285.397031) scale(0.1 -0.1)">
       <defs>
        <path id="DejaVuSans-52" d="M 1959 3097 
Q 1497 3097 1228 2736 
Q 959 2375 959 1747 
Q 959 1119 1226 758 
Q 1494 397 1959 397 
Q 2419 397 2687 759 
Q 2956 1122 2956 1747 
Q 2956 2369 2687 2733 
Q 2419 3097 1959 3097 
z
M 1959 3584 
Q 2709 3584 3137 3096 
Q 3566 2609 3566 1747 
Q 3566 888 3137 398 
Q 2709 -91 1959 -91 
Q 1206 -91 779 398 
Q 353 888 353 1747 
Q 353 2609 779 3096 
Q 1206 3584 1959 3584 
z
" transform="scale(0.015625)"/>
        <path id="DejaVuSans-47" d="M 2906 2969 
L 2906 4863 
L 3481 4863 
L 3481 0 
L 2906 0 
L 2906 525 
Q 2725 213 2448 61 
Q 2172 -91 1784 -91 
Q 1150 -91 751 415 
Q 353 922 353 1747 
Q 353 2572 751 3078 
Q 1150 3584 1784 3584 
Q 2172 3584 2448 3432 
Q 2725 3281 2906 2969 
z
M 947 1747 
Q 947 1113 1208 752 
Q 1469 391 1925 391 
Q 2381 391 2643 752 
Q 2906 1113 2906 1747 
Q 2906 2381 2643 2742 
Q 2381 3103 1925 3103 
Q 1469 3103 1208 2742 
Q 947 2381 947 1747 
z
" transform="scale(0.015625)"/>
        <path id="DejaVuSans-4b" d="M 3513 2113 
L 3513 0 
L 2938 0 
L 2938 2094 
Q 2938 2591 2744 2837 
Q 2550 3084 2163 3084 
Q 1697 3084 1428 2787 
Q 1159 2491 1159 1978 
L 1159 0 
L 581 0 
L 581 4863 
L 1159 4863 
L 1159 2956 
Q 1366 3272 1645 3428 
Q 1925 3584 2291 3584 
Q 2894 3584 3203 3211 
Q 3513 2838 3513 2113 
z
" transform="scale(0.015625)"/>
       </defs>
       <use xlink:href="#DejaVuSans-46"/>
       <use xlink:href="#DejaVuSans-52" transform="translate(54.984375 0)"/>
       <use xlink:href="#DejaVuSans-47" transform="translate(116.171875 0)"/>
       <use xlink:href="#DejaVuSans-48" transform="translate(179.65625 0)"/>
       <use xlink:href="#DejaVuSans-3" transform="translate(241.1875 0)"/>
       <use xlink:href="#DejaVuSans-46" transform="translate(272.96875 0)"/>
       <use xlink:href="#DejaVuSans-4b" transform="translate(327.953125 0)"/>
       <use xlink:href="#DejaVuSans-44" transform="translate(391.328125 0)"/>
       <use xlink:href="#DejaVuSans-55" transform="translate(452.609375 0)"/>
       <use xlink:href="#DejaVuSans-56" transform="translate(493.71875 0)"/>
       <use xlink:href="#DejaVuSans-3" transform="translate(545.8125 0)"/>
       <use xlink:href="#DejaVuSans-50" transform="translate(577.59375 0)"/>
       <use xlink:href="#DejaVuSans-48" transform="translate(675 0)"/>
       <use xlink:href="#DejaVuSans-44" transform="translate(736.53125 0)"/>
       <use xlink:href="#DejaVuSans-51" transform="translate(797.8125 0)"/>
      </g>
     </g>
    </g>
    <g id="xtick_3">
     <g id="line2d_3">
      <g>
       <use xlink:href="#m5d28226b8b" x="476.848273" y="270.798594" style="stroke: #000000; stroke-width: 0.8"/>
      </g>
     </g>
     <g id="text_3">
      <!-- iterations -->
      <g transform="translate(453.120929 285.397031) scale(0.1 -0.1)">
       <defs>
        <path id="DejaVuSans-4c" d="M 603 3500 
L 1178 3500 
L 1178 0 
L 603 0 
L 603 3500 
z
M 603 4863 
L 1178 4863 
L 1178 4134 
L 603 4134 
L 603 4863 
z
" transform="scale(0.015625)"/>
       </defs>
       <use xlink:href="#DejaVuSans-4c"/>
       <use xlink:href="#DejaVuSans-57" transform="translate(27.78125 0)"/>
       <use xlink:href="#DejaVuSans-48" transform="translate(66.984375 0)"/>
       <use xlink:href="#DejaVuSans-55" transform="translate(128.515625 0)"/>
       <use xlink:href="#DejaVuSans-44" transform="translate(169.625 0)"/>
       <use xlink:href="#DejaVuSans-57" transform="translate(230.90625 0)"/>
       <use xlink:href="#DejaVuSans-4c" transform="translate(270.109375 0)"/>
       <use xlink:href="#DejaVuSans-52" transform="translate(297.890625 0)"/>
       <use xlink:href="#DejaVuSans-51" transform="translate(359.078125 0)"/>
       <use xlink:href="#DejaVuSans-56" transform="translate(422.453125 0)"/>
      </g>
     </g>
    </g>
   </g>
   <g id="matplotlib.axis_2">
    <g id="ytick_1">
     <g id="line2d_4">
      <path d="M 47.288281 270.798594 
L 560.685937 270.798594 
" clip-path="url(#p5e257d919c)" style="fill: none; stroke: #b0b0b0; stroke-opacity: 0.3; stroke-width: 0.8; stroke-linecap: square"/>
     </g>
     <g id="line2d_5">
      <defs>
       <path id="m3e649f4ea5" d="M 0 0 
L -3.5 0 
" style="stroke: #000000; stroke-width: 0.8"/>
      </defs>
      <g>
       <use xlink:href="#m3e649f4ea5" x="47.288281" y="270.798594" style="stroke: #000000; stroke-width: 0.8"/>
      </g>
     </g>
     <g id="text_4">
      <!-- 0 -->
      <g transform="translate(33.925781 274.597422) scale(0.1 -0.1)">
       <defs>
        <path id="DejaVuSans-13" d="M 2034 4250 
Q 1547 4250 1301 3770 
Q 1056 3291 1056 2328 
Q 1056 1369 1301 889 
Q 1547 409 2034 409 
Q 2525 409 2770 889 
Q 3016 1369 3016 2328 
Q 3016 3291 2770 3770 
Q 2525 4250 2034 4250 
z
M 2034 4750 
Q 2819 4750 3233 4129 
Q 3647 3509 3647 2328 
Q 3647 1150 3233 529 
Q 2819 -91 2034 -91 
Q 1250 -91 836 529 
Q 422 1150 422 2328 
Q 422 3509 836 4129 
Q 1250 4750 2034 4750 
z
" transform="scale(0.015625)"/>
       </defs>
       <use xlink:href="#DejaVuSans-13"/>
      </g>
     </g>
    </g>
    <g id="ytick_2">
     <g id="line2d_6">
      <path d="M 47.288281 231.225339 
L 560.685937 231.225339 
" clip-path="url(#p5e257d919c)" style="fill: none; stroke: #b0b0b0; stroke-opacity: 0.3; stroke-width: 0.8; stroke-linecap: square"/>
     </g>
     <g id="line2d_7">
      <g>
       <use xlink:href="#m3e649f4ea5" x="47.288281" y="231.225339" style="stroke: #000000; stroke-width: 0.8"/>
      </g>
     </g>
     <g id="text_5">
      <!-- 50 -->
      <g transform="translate(27.563281 235.024167) scale(0.1 -0.1)">
       <defs>
        <path id="DejaVuSans-18" d="M 691 4666 
L 3169 4666 
L 3169 4134 
L 1269 4134 
L 1269 2991 
Q 1406 3038 1543 3061 
Q 1681 3084 1819 3084 
Q 2600 3084 3056 2656 
Q 3513 2228 3513 1497 
Q 3513 744 3044 326 
Q 2575 -91 1722 -91 
Q 1428 -91 1123 -41 
Q 819 9 494 109 
L 494 744 
Q 775 591 1075 516 
Q 1375 441 1709 441 
Q 2250 441 2565 725 
Q 2881 1009 2881 1497 
Q 2881 1984 2565 2268 
Q 2250 2553 1709 2553 
Q 1456 2553 1204 2497 
Q 953 2441 691 2322 
L 691 4666 
z
" transform="scale(0.015625)"/>
       </defs>
       <use xlink:href="#DejaVuSans-18"/>
       <use xlink:href="#DejaVuSans-13" transform="translate(63.625 0)"/>
      </g>
     </g>
    </g>
    <g id="ytick_3">
     <g id="line2d_8">
      <path d="M 47.288281 191.652084 
L 560.685937 191.652084 
" clip-path="url(#p5e257d919c)" style="fill: none; stroke: #b0b0b0; stroke-opacity: 0.3; stroke-width: 0.8; stroke-linecap: square"/>
     </g>
     <g id="line2d_9">
      <g>
       <use xlink:href="#m3e649f4ea5" x="47.288281" y="191.652084" style="stroke: #000000; stroke-width: 0.8"/>
      </g>
     </g>
     <g id="text_6">
      <!-- 100 -->
      <g transform="translate(21.200781 195.450912) scale(0.1 -0.1)">
       <defs>
        <path id="DejaVuSans-14" d="M 794 531 
L 1825 531 
L 1825 4091 
L 703 3866 
L 703 4441 
L 1819 4666 
L 2450 4666 
L 2450 531 
L 3481 531 
L 3481 0 
L 794 0 
L 794 531 
z
" transform="scale(0.015625)"/>
       </defs>
       <use xlink:href="#DejaVuSans-14"/>
       <use xlink:href="#DejaVuSans-13" transform="translate(63.625 0)"/>
       <use xlink:href="#DejaVuSans-13" transform="translate(127.25 0)"/>
      </g>
     </g>
    </g>
    <g id="ytick_4">
     <g id="line2d_10">
      <path d="M 47.288281 152.078828 
L 560.685937 152.078828 
" clip-path="url(#p5e257d919c)" style="fill: none; stroke: #b0b0b0; stroke-opacity: 0.3; stroke-width: 0.8; stroke-linecap: square"/>
     </g>
     <g id="line2d_11">
      <g>
       <use xlink:href="#m3e649f4ea5" x="47.288281" y="152.078828" style="stroke: #000000; stroke-width: 0.8"/>
      </g>
     </g>
     <g id="text_7">
      <!-- 150 -->
      <g transform="translate(21.200781 155.877657) scale(0.1 -0.1)">
       <use xlink:href="#DejaVuSans-14"/>
       <use xlink:href="#DejaVuSans-18" transform="translate(63.625 0)"/>
       <use xlink:href="#DejaVuSans-13" transform="translate(127.25 0)"/>
      </g>
     </g>
    </g>
    <g id="ytick_5">
     <g id="line2d_12">
      <path d="M 47.288281 112.505573 
L 560.685937 112.505573 
" clip-path="url(#p5e257d919c)" style="fill: none; stroke: #b0b0b0; stroke-opacity: 0.3; stroke-width: 0.8; stroke-linecap: square"/>
     </g>
     <g id="line2d_13">
      <g>
       <use xlink:href="#m3e649f4ea5" x="47.288281" y="112.505573" style="stroke: #000000; stroke-width: 0.8"/>
      </g>
     </g>
     <g id="text_8">
      <!-- 200 -->
      <g transform="translate(21.200781 116.304401) scale(0.1 -0.1)">
       <defs>
        <path id="DejaVuSans-15" d="M 1228 531 
L 3431 531 
L 3431 0 
L 469 0 
L 469 531 
Q 828 903 1448 1529 
Q 2069 2156 2228 2338 
Q 2531 2678 2651 2914 
Q 2772 3150 2772 3378 
Q 2772 3750 2511 3984 
Q 2250 4219 1831 4219 
Q 1534 4219 1204 4116 
Q 875 4013 500 3803 
L 500 4441 
Q 881 4594 1212 4672 
Q 1544 4750 1819 4750 
Q 2544 4750 2975 4387 
Q 3406 4025 3406 3419 
Q 3406 3131 3298 2873 
Q 3191 2616 2906 2266 
Q 2828 2175 2409 1742 
Q 1991 1309 1228 531 
z
" transform="scale(0.015625)"/>
       </defs>
       <use xlink:href="#DejaVuSans-15"/>
       <use xlink:href="#DejaVuSans-13" transform="translate(63.625 0)"/>
       <use xlink:href="#DejaVuSans-13" transform="translate(127.25 0)"/>
      </g>
     </g>
    </g>
    <g id="ytick_6">
     <g id="line2d_14">
      <path d="M 47.288281 72.932318 
L 560.685937 72.932318 
" clip-path="url(#p5e257d919c)" style="fill: none; stroke: #b0b0b0; stroke-opacity: 0.3; stroke-width: 0.8; stroke-linecap: square"/>
     </g>
     <g id="line2d_15">
      <g>
       <use xlink:href="#m3e649f4ea5" x="47.288281" y="72.932318" style="stroke: #000000; stroke-width: 0.8"/>
      </g>
     </g>
     <g id="text_9">
      <!-- 250 -->
      <g transform="translate(21.200781 76.731146) scale(0.1 -0.1)">
       <use xlink:href="#DejaVuSans-15"/>
       <use xlink:href="#DejaVuSans-18" transform="translate(63.625 0)"/>
       <use xlink:href="#DejaVuSans-13" transform="translate(127.25 0)"/>
      </g>
     </g>
    </g>
    <g id="ytick_7">
     <g id="line2d_16">
      <path d="M 47.288281 33.359063 
L 560.685937 33.359063 
" clip-path="url(#p5e257d919c)" style="fill: none; stroke: #b0b0b0; stroke-opacity: 0.3; stroke-width: 0.8; stroke-linecap: square"/>
     </g>
     <g id="line2d_17">
      <g>
       <use xlink:href="#m3e649f4ea5" x="47.288281" y="33.359063" style="stroke: #000000; stroke-width: 0.8"/>
      </g>
     </g>
     <g id="text_10">
      <!-- 300 -->
      <g transform="translate(21.200781 37.157891) scale(0.1 -0.1)">
       <defs>
        <path id="DejaVuSans-16" d="M 2597 2516 
Q 3050 2419 3304 2112 
Q 3559 1806 3559 1356 
Q 3559 666 3084 287 
Q 2609 -91 1734 -91 
Q 1441 -91 1130 -33 
Q 819 25 488 141 
L 488 750 
Q 750 597 1062 519 
Q 1375 441 1716 441 
Q 2309 441 2620 675 
Q 2931 909 2931 1356 
Q 2931 1769 2642 2001 
Q 2353 2234 1838 2234 
L 1294 2234 
L 1294 2753 
L 1863 2753 
Q 2328 2753 2575 2939 
Q 2822 3125 2822 3475 
Q 2822 3834 2567 4026 
Q 2313 4219 1838 4219 
Q 1578 4219 1281 4162 
Q 984 4106 628 3988 
L 628 4550 
Q 988 4650 1302 4700 
Q 1616 4750 1894 4750 
Q 2613 4750 3031 4423 
Q 3450 4097 3450 3541 
Q 3450 3153 3228 2886 
Q 3006 2619 2597 2516 
z
" transform="scale(0.015625)"/>
       </defs>
       <use xlink:href="#DejaVuSans-16"/>
       <use xlink:href="#DejaVuSans-13" transform="translate(63.625 0)"/>
       <use xlink:href="#DejaVuSans-13" transform="translate(127.25 0)"/>
      </g>
     </g>
    </g>
    <g id="text_11">
     <!-- value (mixed units — compare within metric) -->
     <g transform="translate(14.798438 259.463828) rotate(-90) scale(0.1 -0.1)">
      <defs>
       <path id="DejaVuSans-59" d="M 191 3500 
L 800 3500 
L 1894 563 
L 2988 3500 
L 3597 3500 
L 2284 0 
L 1503 0 
L 191 3500 
z
" transform="scale(0.015625)"/>
       <path id="DejaVuSans-b" d="M 1984 4856 
Q 1566 4138 1362 3434 
Q 1159 2731 1159 2009 
Q 1159 1288 1364 580 
Q 1569 -128 1984 -844 
L 1484 -844 
Q 1016 -109 783 600 
Q 550 1309 550 2009 
Q 550 2706 781 3412 
Q 1013 4119 1484 4856 
L 1984 4856 
z
" transform="scale(0.015625)"/>
       <path id="DejaVuSans-5b" d="M 3513 3500 
L 2247 1797 
L 3578 0 
L 2900 0 
L 1881 1375 
L 863 0 
L 184 0 
L 1544 1831 
L 300 3500 
L 978 3500 
L 1906 2253 
L 2834 3500 
L 3513 3500 
z
" transform="scale(0.015625)"/>
       <path id="DejaVuSans-af6" d="M 313 1978 
L 6088 1978 
L 6088 1528 
L 313 1528 
L 313 1978 
z
" transform="scale(0.015625)"/>
       <path id="DejaVuSans-53" d="M 1159 525 
L 1159 -1331 
L 581 -1331 
L 581 3500 
L 1159 3500 
L 1159 2969 
Q 1341 3281 1617 3432 
Q 1894 3584 2278 3584 
Q 2916 3584 3314 3078 
Q 3713 2572 3713 1747 
Q 3713 922 3314 415 
Q 2916 -91 2278 -91 
Q 1894 -91 1617 61 
Q 1341 213 1159 525 
z
M 3116 1747 
Q 3116 2381 2855 2742 
Q 2594 3103 2138 3103 
Q 1681 3103 1420 2742 
Q 1159 2381 1159 1747 
Q 1159 1113 1420 752 
Q 1681 391 2138 391 
Q 2594 391 2855 752 
Q 3116 1113 3116 1747 
z
" transform="scale(0.015625)"/>
       <path id="DejaVuSans-5a" d="M 269 3500 
L 844 3500 
L 1563 769 
L 2278 3500 
L 2956 3500 
L 3675 769 
L 4391 3500 
L 4966 3500 
L 4050 0 
L 3372 0 
L 2619 2869 
L 1863 0 
L 1184 0 
L 269 3500 
z
" transform="scale(0.015625)"/>
       <path id="DejaVuSans-c" d="M 513 4856 
L 1013 4856 
Q 1481 4119 1714 3412 
Q 1947 2706 1947 2009 
Q 1947 1309 1714 600 
Q 1481 -109 1013 -844 
L 513 -844 
Q 928 -128 1133 580 
Q 1338 1288 1338 2009 
Q 1338 2731 1133 3434 
Q 928 4138 513 4856 
z
" transform="scale(0.015625)"/>
      </defs>
      <use xlink:href="#DejaVuSans-59"/>
      <use xlink:href="#DejaVuSans-44" transform="translate(59.1875 0)"/>
      <use xlink:href="#DejaVuSans-4f" transform="translate(120.46875 0)"/>
      <use xlink:href="#DejaVuSans-58" transform="translate(148.25 0)"/>
      <use xlink:href="#DejaVuSans-48" transform="translate(211.625 0)"/>
      <use xlink:href="#DejaVuSans-3" transform="translate(273.15625 0)"/>
      <use xlink:href="#DejaVuSans-b" transform="translate(304.9375 0)"/>
      <use xlink:href="#DejaVuSans-50" transform="translate(343.953125 0)"/>
      <use xlink:href="#DejaVuSans-4c" transform="translate(441.359375 0)"/>
      <use xlink:href="#DejaVuSans-5b" transform="translate(469.140625 0)"/>
      <use xlink:href="#DejaVuSans-48" transform="translate(525.25 0)"/>
      <use xlink:href="#DejaVuSans-47" transform="translate(586.78125 0)"/>
      <use xlink:href="#DejaVuSans-3" transform="translate(650.265625 0)"/>
      <use xlink:href="#DejaVuSans-58" transform="translate(682.046875 0)"/>
      <use xlink:href="#DejaVuSans-51" transform="translate(745.421875 0)"/>
      <use xlink:href="#DejaVuSans-4c" transform="translate(808.796875 0)"/>
      <use xlink:href="#DejaVuSans-57" transform="translate(836.578125 0)"/>
      <use xlink:href="#DejaVuSans-56" transform="translate(875.78125 0)"/>
      <use xlink:href="#DejaVuSans-3" transform="translate(927.875 0)"/>
      <use xlink:href="#DejaVuSans-af6" transform="translate(959.65625 0)"/>
      <use xlink:href="#DejaVuSans-3" transform="translate(1059.65625 0)"/>
      <use xlink:href="#DejaVuSans-46" transform="translate(1091.4375 0)"/>
      <use xlink:href="#DejaVuSans-52" transform="translate(1146.421875 0)"/>
      <use xlink:href="#DejaVuSans-50" transform="translate(1207.609375 0)"/>
      <use xlink:href="#DejaVuSans-53" transform="translate(1305.015625 0)"/>
      <use xlink:href="#DejaVuSans-44" transform="translate(1368.5 0)"/>
      <use xlink:href="#DejaVuSans-55" transform="translate(1429.78125 0)"/>
      <use xlink:href="#DejaVuSans-48" transform="translate(1468.6875 0)"/>
      <use xlink:href="#DejaVuSans-3" transform="translate(1530.21875 0)"/>
      <use xlink:href="#DejaVuSans-5a" transform="translate(1562 0)"/>
      <use xlink:href="#DejaVuSans-4c" transform="translate(1643.78125 0)"/>
      <use xlink:href="#DejaVuSans-57" transform="translate(1671.5625 0)"/>
      <use xlink:href="#DejaVuSans-4b" transform="translate(1710.765625 0)"/>
      <use xlink:href="#DejaVuSans-4c" transform="translate(1774.140625 0)"/>
      <use xlink:href="#DejaVuSans-51" transform="translate(1801.921875 0)"/>
      <use xlink:href="#DejaVuSans-3" transform="translate(1865.296875 0)"/>
      <use xlink:href="#DejaVuSans-50" transform="translate(1897.078125 0)"/>
      <use xlink:href="#DejaVuSans-48" transform="translate(1994.484375 0)"/>
      <use xlink:href="#DejaVuSans-57" transform="translate(2056.015625 0)"/>
      <use xlink:href="#DejaVuSans-55" transform="translate(2095.21875 0)"/>
      <use xlink:href="#DejaVuSans-4c" transform="translate(2136.328125 0)"/>
      <use xlink:href="#DejaVuSans-46" transform="translate(2164.109375 0)"/>
      <use xlink:href="#DejaVuSans-c" transform="translate(2219.09375 0)"/>
     </g>
    </g>
   </g>
   <g id="patch_9">
    <path d="M 47.288281 270.798594 
L 47.288281 22.318125 
" style="fill: none; stroke: #000000; stroke-width: 0.8; stroke-linejoin: miter; stroke-linecap: square"/>
   </g>
   <g id="patch_10">
    <path d="M 560.685937 270.798594 
L 560.685937 22.318125 
" style="fill: none; stroke: #000000; stroke-width: 0.8; stroke-linejoin: miter; stroke-linecap: square"/>
   </g>
   <g id="patch_11">
    <path d="M 47.288281 270.798594 
L 560.685937 270.798594 
" style="fill: none; stroke: #000000; stroke-width: 0.8; stroke-linejoin: miter; stroke-linecap: square"/>
   </g>
   <g id="patch_12">
    <path d="M 47.288281 22.318125 
L 560.685937 22.318125 
" style="fill: none; stroke: #000000; stroke-width: 0.8; stroke-linejoin: miter; stroke-linecap: square"/>
   </g>
   <g id="text_12">
    <!-- Multi-fence cell-size prompt A/B (same short task) -->
    <g transform="translate(162.674922 16.318125) scale(0.12 -0.12)">
     <defs>
      <path id="DejaVuSans-2a" d="M 3809 666 
L 3809 1919 
L 2778 1919 
L 2778 2438 
L 4434 2438 
L 4434 434 
Q 4069 175 3628 42 
Q 3188 -91 2688 -91 
Q 1594 -91 976 548 
Q 359 1188 359 2328 
Q 359 3472 976 4111 
Q 1594 4750 2688 4750 
Q 3144 4750 3555 4637 
Q 3966 4525 4313 4306 
L 4313 3634 
Q 3963 3931 3569 4081 
Q 3175 4231 2741 4231 
Q 1884 4231 1454 3753 
Q 1025 3275 1025 2328 
Q 1025 1384 1454 906 
Q 1884 428 2741 428 
Q 3075 428 3337 486 
Q 3600 544 3809 666 
z
" transform="scale(0.015625)"/>
      <path id="DejaVuSans-2f" d="M 628 4666 
L 1259 4666 
L 1259 531 
L 3531 531 
L 3531 0 
L 628 0 
L 628 4666 
z
" transform="scale(0.015625)"/>
      <path id="DejaVuSans-30" d="M 628 4666 
L 1569 4666 
L 2759 1491 
L 3956 4666 
L 4897 4666 
L 4897 0 
L 4281 0 
L 4281 4097 
L 3078 897 
L 2444 897 
L 1241 4097 
L 1241 0 
L 628 0 
L 628 4666 
z
" transform="scale(0.015625)"/>
      <path id="DejaVuSans-11" d="M 684 794 
L 1344 794 
L 1344 0 
L 684 0 
L 684 794 
z
" transform="scale(0.015625)"/>
      <path id="DejaVuSans-10" d="M 313 2009 
L 1997 2009 
L 1997 1497 
L 313 1497 
L 313 2009 
z
" transform="scale(0.015625)"/>
      <path id="DejaVuSans-5d" d="M 353 3500 
L 3084 3500 
L 3084 2975 
L 922 459 
L 3084 459 
L 3084 0 
L 275 0 
L 275 525 
L 2438 3041 
L 353 3041 
L 353 3500 
z
" transform="scale(0.015625)"/>
      <path id="DejaVuSans-24" d="M 2188 4044 
L 1331 1722 
L 3047 1722 
L 2188 4044 
z
M 1831 4666 
L 2547 4666 
L 4325 0 
L 3669 0 
L 3244 1197 
L 1141 1197 
L 716 0 
L 50 0 
L 1831 4666 
z
" transform="scale(0.015625)"/>
      <path id="DejaVuSans-25" d="M 1259 2228 
L 1259 519 
L 2272 519 
Q 2781 519 3026 730 
Q 3272 941 3272 1375 
Q 3272 1813 3026 2020 
Q 2781 2228 2272 2228 
L 1259 2228 
z
M 1259 4147 
L 1259 2741 
L 2194 2741 
Q 2656 2741 2882 2914 
Q 3109 3088 3109 3444 
Q 3109 3797 2882 3972 
Q 2656 4147 2194 4147 
L 1259 4147 
z
M 628 4666 
L 2241 4666 
Q 2963 4666 3353 4366 
Q 3744 4066 3744 3513 
Q 3744 3084 3544 2831 
Q 3344 2578 2956 2516 
Q 3422 2416 3680 2098 
Q 3938 1781 3938 1306 
Q 3938 681 3513 340 
Q 3088 0 2303 0 
L 628 0 
L 628 4666 
z
" transform="scale(0.015625)"/>
      <path id="DejaVuSans-4e" d="M 581 4863 
L 1159 4863 
L 1159 1991 
L 2875 3500 
L 3609 3500 
L 1753 1863 
L 3688 0 
L 2938 0 
L 1159 1709 
L 1159 0 
L 581 0 
L 581 4863 
z
" transform="scale(0.015625)"/>
     </defs>
     <use xlink:href="#DejaVuSans-2a"/>
     <use xlink:href="#DejaVuSans-2f" transform="translate(77.484375 0)"/>
     <use xlink:href="#DejaVuSans-30" transform="translate(133.203125 0)"/>
     <use xlink:href="#DejaVuSans-3" transform="translate(219.484375 0)"/>
     <use xlink:href="#DejaVuSans-18" transform="translate(251.265625 0)"/>
     <use xlink:href="#DejaVuSans-11" transform="translate(314.890625 0)"/>
     <use xlink:href="#DejaVuSans-15" transform="translate(346.671875 0)"/>
     <use xlink:href="#DejaVuSans-3" transform="translate(410.296875 0)"/>
     <use xlink:href="#DejaVuSans-46" transform="translate(442.078125 0)"/>
     <use xlink:href="#DejaVuSans-48" transform="translate(497.0625 0)"/>
     <use xlink:href="#DejaVuSans-4f" transform="translate(558.59375 0)"/>
     <use xlink:href="#DejaVuSans-4f" transform="translate(586.375 0)"/>
     <use xlink:href="#DejaVuSans-10" transform="translate(614.15625 0)"/>
     <use xlink:href="#DejaVuSans-56" transform="translate(650.234375 0)"/>
     <use xlink:href="#DejaVuSans-4c" transform="translate(702.328125 0)"/>
     <use xlink:href="#DejaVuSans-5d" transform="translate(730.109375 0)"/>
     <use xlink:href="#DejaVuSans-48" transform="translate(782.59375 0)"/>
     <use xlink:href="#DejaVuSans-3" transform="translate(844.125 0)"/>
     <use xlink:href="#DejaVuSans-53" transform="translate(875.90625 0)"/>
     <use xlink:href="#DejaVuSans-55" transform="translate(939.390625 0)"/>
     <use xlink:href="#DejaVuSans-52" transform="translate(978.296875 0)"/>
     <use xlink:href="#DejaVuSans-50" transform="translate(1039.484375 0)"/>
     <use xlink:href="#DejaVuSans-53" transform="translate(1136.890625 0)"/>
     <use xlink:href="#DejaVuSans-57" transform="translate(1200.375 0)"/>
     <use xlink:href="#DejaVuSans-3" transform="translate(1239.578125 0)"/>
     <use xlink:href="#DejaVuSans-24" transform="translate(1271.359375 0)"/>
     <use xlink:href="#DejaVuSans-12" transform="translate(1339.765625 0)"/>
     <use xlink:href="#DejaVuSans-25" transform="translate(1373.453125 0)"/>
     <use xlink:href="#DejaVuSans-3" transform="translate(1442.0625 0)"/>
     <use xlink:href="#DejaVuSans-b" transform="translate(1473.84375 0)"/>
     <use xlink:href="#DejaVuSans-56" transform="translate(1512.859375 0)"/>
     <use xlink:href="#DejaVuSans-44" transform="translate(1564.953125 0)"/>
     <use xlink:href="#DejaVuSans-50" transform="translate(1626.234375 0)"/>
     <use xlink:href="#DejaVuSans-48" transform="translate(1723.640625 0)"/>
     <use xlink:href="#DejaVuSans-3" transform="translate(1785.171875 0)"/>
     <use xlink:href="#DejaVuSans-56" transform="translate(1816.953125 0)"/>
     <use xlink:href="#DejaVuSans-4b" transform="translate(1869.046875 0)"/>
     <use xlink:href="#DejaVuSans-52" transform="translate(1932.421875 0)"/>
     <use xlink:href="#DejaVuSans-55" transform="translate(1993.609375 0)"/>
     <use xlink:href="#DejaVuSans-57" transform="translate(2034.71875 0)"/>
     <use xlink:href="#DejaVuSans-3" transform="translate(2073.921875 0)"/>
     <use xlink:href="#DejaVuSans-57" transform="translate(2105.703125 0)"/>
     <use xlink:href="#DejaVuSans-44" transform="translate(2144.90625 0)"/>
     <use xlink:href="#DejaVuSans-56" transform="translate(2206.1875 0)"/>
     <use xlink:href="#DejaVuSans-4e" transform="translate(2258.28125 0)"/>
     <use xlink:href="#DejaVuSans-c" transform="translate(2316.1875 0)"/>
    </g>
   </g>
   <g id="legend_1">
    <g id="patch_13">
     <path d="M 392.076562 60.319687 
L 553.685937 60.319687 
Q 555.685937 60.319687 555.685937 58.319687 
L 555.685937 29.318125 
Q 555.685937 27.318125 553.685937 27.318125 
L 392.076562 27.318125 
Q 390.076562 27.318125 390.076562 29.318125 
L 390.076562 58.319687 
Q 390.076562 60.319687 392.076562 60.319687 
z
" style="fill: #ffffff; opacity: 0.8; stroke: #cccccc; stroke-linejoin: miter"/>
    </g>
    <g id="patch_14">
     <path d="M 394.076562 38.916562 
L 414.076562 38.916562 
L 414.076562 31.916562 
L 394.076562 31.916562 
z
" style="fill: #1f77b4"/>
    </g>
    <g id="text_13">
     <!-- A baseline (multi_block) -->
     <g transform="translate(422.076562 38.916562) scale(0.1 -0.1)">
      <defs>
       <path id="DejaVuSans-45" d="M 3116 1747 
Q 3116 2381 2855 2742 
Q 2594 3103 2138 3103 
Q 1681 3103 1420 2742 
Q 1159 2381 1159 1747 
Q 1159 1113 1420 752 
Q 1681 391 2138 391 
Q 2594 391 2855 752 
Q 3116 1113 3116 1747 
z
M 1159 2969 
Q 1341 3281 1617 3432 
Q 1894 3584 2278 3584 
Q 2916 3584 3314 3078 
Q 3713 2572 3713 1747 
Q 3713 922 3314 415 
Q 2916 -91 2278 -91 
Q 1894 -91 1617 61 
Q 1341 213 1159 525 
L 1159 0 
L 581 0 
L 581 4863 
L 1159 4863 
L 1159 2969 
z
" transform="scale(0.015625)"/>
       <path id="DejaVuSans-42" d="M 3263 -1063 
L 3263 -1509 
L -63 -1509 
L -63 -1063 
L 3263 -1063 
z
" transform="scale(0.015625)"/>
      </defs>
      <use xlink:href="#DejaVuSans-24"/>
      <use xlink:href="#DejaVuSans-3" transform="translate(68.40625 0)"/>
      <use xlink:href="#DejaVuSans-45" transform="translate(100.1875 0)"/>
      <use xlink:href="#DejaVuSans-44" transform="translate(163.671875 0)"/>
      <use xlink:href="#DejaVuSans-56" transform="translate(224.953125 0)"/>
      <use xlink:href="#DejaVuSans-48" transform="translate(277.046875 0)"/>
      <use xlink:href="#DejaVuSans-4f" transform="translate(338.578125 0)"/>
      <use xlink:href="#DejaVuSans-4c" transform="translate(366.359375 0)"/>
      <use xlink:href="#DejaVuSans-51" transform="translate(394.140625 0)"/>
      <use xlink:href="#DejaVuSans-48" transform="translate(457.515625 0)"/>
      <use xlink:href="#DejaVuSans-3" transform="translate(519.046875 0)"/>
      <use xlink:href="#DejaVuSans-b" transform="translate(550.828125 0)"/>
      <use xlink:href="#DejaVuSans-50" transform="translate(589.84375 0)"/>
      <use xlink:href="#DejaVuSans-58" transform="translate(687.25 0)"/>
      <use xlink:href="#DejaVuSans-4f" transform="translate(750.625 0)"/>
      <use xlink:href="#DejaVuSans-57" transform="translate(778.40625 0)"/>
      <use xlink:href="#DejaVuSans-4c" transform="translate(817.609375 0)"/>
      <use xlink:href="#DejaVuSans-42" transform="translate(845.390625 0)"/>
      <use xlink:href="#DejaVuSans-45" transform="translate(895.390625 0)"/>
      <use xlink:href="#DejaVuSans-4f" transform="translate(958.875 0)"/>
      <use xlink:href="#DejaVuSans-52" transform="translate(986.65625 0)"/>
      <use xlink:href="#DejaVuSans-46" transform="translate(1047.84375 0)"/>
      <use xlink:href="#DejaVuSans-4e" transform="translate(1102.828125 0)"/>
      <use xlink:href="#DejaVuSans-c" transform="translate(1160.734375 0)"/>
     </g>
    </g>
    <g id="patch_15">
     <path d="M 394.076562 53.917344 
L 414.076562 53.917344 
L 414.076562 46.917344 
L 394.076562 46.917344 
z
" style="fill: #ff7f0e"/>
    </g>
    <g id="text_14">
     <!-- B small-cell (single_block) -->
     <g transform="translate(422.076562 53.917344) scale(0.1 -0.1)">
      <defs>
       <path id="DejaVuSans-4a" d="M 2906 1791 
Q 2906 2416 2648 2759 
Q 2391 3103 1925 3103 
Q 1463 3103 1205 2759 
Q 947 2416 947 1791 
Q 947 1169 1205 825 
Q 1463 481 1925 481 
Q 2391 481 2648 825 
Q 2906 1169 2906 1791 
z
M 3481 434 
Q 3481 -459 3084 -895 
Q 2688 -1331 1869 -1331 
Q 1566 -1331 1297 -1286 
Q 1028 -1241 775 -1147 
L 775 -588 
Q 1028 -725 1275 -790 
Q 1522 -856 1778 -856 
Q 2344 -856 2625 -561 
Q 2906 -266 2906 331 
L 2906 616 
Q 2728 306 2450 153 
Q 2172 0 1784 0 
Q 1141 0 747 490 
Q 353 981 353 1791 
Q 353 2603 747 3093 
Q 1141 3584 1784 3584 
Q 2172 3584 2450 3431 
Q 2728 3278 2906 2969 
L 2906 3500 
L 3481 3500 
L 3481 434 
z
" transform="scale(0.015625)"/>
      </defs>
      <use xlink:href="#DejaVuSans-25"/>
      <use xlink:href="#DejaVuSans-3" transform="translate(68.609375 0)"/>
      <use xlink:href="#DejaVuSans-56" transform="translate(100.390625 0)"/>
      <use xlink:href="#DejaVuSans-50" transform="translate(152.484375 0)"/>
      <use xlink:href="#DejaVuSans-44" transform="translate(249.890625 0)"/>
      <use xlink:href="#DejaVuSans-4f" transform="translate(311.171875 0)"/>
      <use xlink:href="#DejaVuSans-4f" transform="translate(338.953125 0)"/>
      <use xlink:href="#DejaVuSans-10" transform="translate(366.734375 0)"/>
      <use xlink:href="#DejaVuSans-46" transform="translate(402.8125 0)"/>
      <use xlink:href="#DejaVuSans-48" transform="translate(457.796875 0)"/>
      <use xlink:href="#DejaVuSans-4f" transform="translate(519.328125 0)"/>
      <use xlink:href="#DejaVuSans-4f" transform="translate(547.109375 0)"/>
      <use xlink:href="#DejaVuSans-3" transform="translate(574.890625 0)"/>
      <use xlink:href="#DejaVuSans-b" transform="translate(606.671875 0)"/>
      <use xlink:href="#DejaVuSans-56" transform="translate(645.6875 0)"/>
      <use xlink:href="#DejaVuSans-4c" transform="translate(697.78125 0)"/>
      <use xlink:href="#DejaVuSans-51" transform="translate(725.5625 0)"/>
      <use xlink:href="#DejaVuSans-4a" transform="translate(788.9375 0)"/>
      <use xlink:href="#DejaVuSans-4f" transform="translate(852.421875 0)"/>
      <use xlink:href="#DejaVuSans-48" transform="translate(880.203125 0)"/>
      <use xlink:href="#DejaVuSans-42" transform="translate(941.734375 0)"/>
      <use xlink:href="#DejaVuSans-45" transform="translate(991.734375 0)"/>
      <use xlink:href="#DejaVuSans-4f" transform="translate(1055.21875 0)"/>
      <use xlink:href="#DejaVuSans-52" transform="translate(1083 0)"/>
      <use xlink:href="#DejaVuSans-46" transform="translate(1144.1875 0)"/>
      <use xlink:href="#DejaVuSans-4e" transform="translate(1199.171875 0)"/>
      <use xlink:href="#DejaVuSans-c" transform="translate(1257.078125 0)"/>
     </g>
    </g>
   </g>
  </g>
 </g>
 <defs>
  <clipPath id="p5e257d919c">
   <rect x="47.288281" y="22.318125" width="513.397656" height="248.480469"/>
  </clipPath>
 </defs>
</svg>
